<?xml version="1.0" encoding="UTF-8"?>
<svg version="1.1" xmlns="http://www.w3.org/2000/svg" width="423" height="423">
<path d="M0 0 C0.84986984 -0.00570007 1.69973969 -0.01140015 2.57536316 -0.01727295 C4.36785667 -0.02666068 6.16036696 -0.03323192 7.95288086 -0.03710938 C10.62321358 -0.04671402 13.29274108 -0.07775513 15.96289062 -0.109375 C28.17739992 -0.18460521 39.84839033 0.9852604 51.85546875 3.203125 C52.90549072 3.39664551 53.9555127 3.59016602 55.03735352 3.78955078 C57.45090354 4.2729429 59.83931814 4.80718528 62.23046875 5.390625 C63.0814917 5.5971167 63.93251465 5.8036084 64.80932617 6.01635742 C80.96539715 10.11693544 96.20059614 16.32345221 110.85546875 24.203125 C111.84675781 24.71617188 112.83804687 25.22921875 113.859375 25.7578125 C129.86159789 34.18003507 144.28880599 45.27245364 157.32861328 57.74365234 C158.3586265 58.72820927 159.39359334 59.7076064 160.43310547 60.68212891 C178.82200382 77.96400328 193.40957884 99.27208655 203.85546875 122.203125 C204.19175293 122.93756836 204.52803711 123.67201172 204.87451172 124.42871094 C215.63695513 148.21831108 222.9169281 174.09268159 223.05859375 200.34765625 C223.06429382 201.19752609 223.0699939 202.04739594 223.0758667 202.92301941 C223.08525443 204.71551292 223.09182567 206.50802321 223.09570312 208.30053711 C223.10530777 210.97086983 223.13634888 213.64039733 223.16796875 216.31054688 C223.24319896 228.52505617 222.07333335 240.19604658 219.85546875 252.203125 C219.66194824 253.25314697 219.46842773 254.30316895 219.26904297 255.38500977 C218.78565085 257.79855979 218.25140847 260.18697439 217.66796875 262.578125 C217.3582312 263.85465942 217.3582312 263.85465942 217.04223633 265.15698242 C212.94165831 281.3130534 206.73514154 296.54825239 198.85546875 311.203125 C198.34242188 312.19441406 197.829375 313.18570312 197.30078125 314.20703125 C188.87855868 330.20925414 177.78614011 344.63646224 165.31494141 357.67626953 C164.33038448 358.70628275 163.35098735 359.74124959 162.37646484 360.78076172 C145.09459047 379.16966007 123.7865072 393.75723509 100.85546875 404.203125 C100.12102539 404.53940918 99.38658203 404.87569336 98.62988281 405.22216797 C74.84028267 415.98461138 48.96591216 423.26458435 22.7109375 423.40625 C21.86106766 423.41195007 21.01119781 423.41765015 20.13557434 423.42352295 C18.34308083 423.43291068 16.55057054 423.43948192 14.75805664 423.44335938 C12.08772392 423.45296402 9.41819642 423.48400513 6.74804688 423.515625 C-5.46646242 423.59085521 -17.13745283 422.4209896 -29.14453125 420.203125 C-30.19455322 420.00960449 -31.2445752 419.81608398 -32.32641602 419.61669922 C-34.73996604 419.1333071 -37.12838064 418.59906472 -39.51953125 418.015625 C-40.79606567 417.70588745 -40.79606567 417.70588745 -42.09838867 417.38989258 C-58.25445965 413.28931456 -73.48965864 407.08279779 -88.14453125 399.203125 C-89.13582031 398.69007813 -90.12710938 398.17703125 -91.1484375 397.6484375 C-107.15066039 389.22621493 -121.57786849 378.13379636 -134.61767578 365.66259766 C-135.647689 364.67804073 -136.68265584 363.6986436 -137.72216797 362.72412109 C-156.11106632 345.44224672 -170.69864134 324.13416345 -181.14453125 301.203125 C-181.64895752 300.10145996 -181.64895752 300.10145996 -182.16357422 298.97753906 C-192.92601763 275.18793892 -200.2059906 249.31356841 -200.34765625 223.05859375 C-200.35335632 222.20872391 -200.3590564 221.35885406 -200.3649292 220.48323059 C-200.37431693 218.69073708 -200.38088817 216.89822679 -200.38476562 215.10571289 C-200.39437027 212.43538017 -200.42541138 209.76585267 -200.45703125 207.09570312 C-200.53226146 194.88119383 -199.36239585 183.21020342 -197.14453125 171.203125 C-196.95101074 170.15310303 -196.75749023 169.10308105 -196.55810547 168.02124023 C-196.07471335 165.60769021 -195.54047097 163.21927561 -194.95703125 160.828125 C-194.75053955 159.97710205 -194.54404785 159.1260791 -194.33129883 158.24926758 C-190.23072081 142.0931966 -184.02420404 126.85799761 -176.14453125 112.203125 C-175.63148438 111.21183594 -175.1184375 110.22054687 -174.58984375 109.19921875 C-166.16762118 93.19699586 -155.07520261 78.76978776 -142.60400391 65.72998047 C-141.61944698 64.69996725 -140.64004985 63.66500041 -139.66552734 62.62548828 C-122.38365297 44.23658993 -101.0755697 29.64901491 -78.14453125 19.203125 C-77.41008789 18.86684082 -76.67564453 18.53055664 -75.91894531 18.18408203 C-52.12934517 7.42163862 -26.25497466 0.14166565 0 0 Z " fill="#000000" transform="translate(200.14453125,-0.203125)"/>
<path d="M0 0 C0.10191554 6.53693796 -0.0594143 12.83261208 -0.9375 19.3125 C-1.02451172 19.97572266 -1.11152344 20.63894531 -1.20117188 21.32226562 C-1.72179852 25.2288937 -2.33161673 29.11615129 -3 33 C-3.66 33 -4.32 33 -5 33 C-5.21914062 32.154375 -5.43828125 31.30875 -5.6640625 30.4375 C-8.56251772 20.0690423 -12.10590563 12.94536386 -21.48828125 7.25390625 C-34.03861638 0.98849789 -51.92705943 0.8921133 -65.26171875 4.890625 C-70.53963449 7.02889614 -75.27740267 9.83785331 -80 13 C-80.66902344 13.42796875 -81.33804688 13.8559375 -82.02734375 14.296875 C-90.8315653 20.76528267 -95.74348547 33.08917008 -97.625 43.4375 C-99.51083775 62.29587749 -96.50147223 79.7481016 -84.625 95.0625 C-84.08875 95.701875 -83.5525 96.34125 -83 97 C-83 97.66 -83 98.32 -83 99 C-82.13375 99.37898438 -82.13375 99.37898438 -81.25 99.765625 C-78.73746054 101.14403207 -77.04737276 102.74915844 -75 104.75 C-69.84741797 109.41185993 -64.36272972 112.28760127 -58 115 C-57.24589844 115.34160156 -56.49179688 115.68320312 -55.71484375 116.03515625 C-45.78409803 119.80078293 -31.79825256 119.69791202 -21.75 116.4375 C-10.92744746 111.52429752 -6.27436277 103.11387116 -1 93 C-0.34 93 0.32 93 1 93 C1.48315282 101.95174809 1.92628556 112.13420914 -3 120 C-14.72592916 126.88725345 -31.83240773 125.19657981 -45 125.25 C-46.00137497 125.25790054 -46.00137497 125.25790054 -47.02297974 125.26596069 C-67.32293884 125.38973523 -83.83233093 119.96954191 -98.93359375 106.12890625 C-102.2208885 102.74218482 -104.64996543 99.07659058 -107 95 C-107.67869141 93.89591797 -107.67869141 93.89591797 -108.37109375 92.76953125 C-116.47698539 78.40983597 -116.72275063 60.032776 -112.9765625 44.3828125 C-109.66655122 32.91693342 -104.26698139 21.72625814 -96 13 C-95.34 13 -94.68 13 -94 13 C-93.75378906 12.401875 -93.50757813 11.80375 -93.25390625 11.1875 C-89.18875656 4.09565008 -78.55150085 0.43699146 -71.1171875 -1.91015625 C-48.05549336 -7.66220293 -23.11444377 -3.70027924 0 0 Z " fill="#F5F5F5" transform="translate(224,156)"/>
<path d="M0 0 C92.07 0 184.14 0 279 0 C276.07052803 7.32367992 276.07052803 7.32367992 273 10 C269.39176141 10.74873939 265.82795191 10.65219303 262.15484619 10.60127258 C260.47750495 10.60768077 260.47750495 10.60768077 258.76627803 10.61421841 C255.00556643 10.6224782 251.24596104 10.59491199 247.48535156 10.56762695 C244.79511495 10.56621713 242.10494686 10.56678679 239.41471863 10.56983948 C233.61589275 10.57246224 227.817348 10.5567647 222.01859283 10.52865028 C213.63459919 10.48802816 205.2507416 10.47499442 196.86666021 10.46871033 C183.26438259 10.45776509 169.66225483 10.42448475 156.06005859 10.37719727 C142.84619904 10.33130756 129.63238017 10.29591279 116.41845703 10.2746582 C115.60405813 10.27334459 114.78965923 10.27203097 113.95058158 10.27067754 C109.86501292 10.26415239 105.77944398 10.25783384 101.69387484 10.25161803 C67.79580684 10.19977789 33.89792428 10.11133498 0 10 C0 6.7 0 3.4 0 0 Z " fill="#F0F0F0" transform="translate(109,328)"/>
<path d="M0 0 C13.53 0 27.06 0 41 0 C41 0.66 41 1.32 41 2 C40.37351562 2.17015625 39.74703125 2.3403125 39.1015625 2.515625 C38.28429687 2.75796875 37.46703125 3.0003125 36.625 3.25 C35.81289063 3.48203125 35.00078125 3.7140625 34.1640625 3.953125 C31.44729504 5.26737352 31.10574387 6.23817688 30 9 C29.67797584 11.13633955 29.67797584 11.13633955 29.68115234 13.40136719 C29.66109131 14.27390137 29.64103027 15.14643555 29.62036133 16.04541016 C29.60900146 16.95339355 29.5976416 17.86137695 29.5859375 18.796875 C29.56829346 19.63814941 29.55064941 20.47942383 29.5324707 21.34619141 C29.46953413 24.48060193 29.42325737 27.61532911 29.375 30.75 C29.25125 37.7625 29.1275 44.775 29 52 C47.81 52 66.62 52 86 52 C86 54.31 86 56.62 86 59 C67.19 59 48.38 59 29 59 C29.103125 67.435625 29.20625 75.87125 29.3125 84.5625 C29.33739502 87.2135376 29.36229004 89.8645752 29.38793945 92.59594727 C29.42024239 94.71111805 29.45361794 96.82627283 29.48828125 98.94140625 C29.49764709 100.57184875 29.49764709 100.57184875 29.50720215 102.23522949 C29.62058303 108.23342166 30.01389275 112.7413822 33 118 C36.85854235 121.25832465 39.99046845 122.52290176 45 123 C45 123.66 45 124.32 45 125 C30.48 125 15.96 125 1 125 C1 124.34 1 123.68 1 123 C1.62648438 122.80664062 2.25296875 122.61328125 2.8984375 122.4140625 C4.12433594 122.02347656 4.12433594 122.02347656 5.375 121.625 C6.59316406 121.24214844 6.59316406 121.24214844 7.8359375 120.8515625 C10.16459185 120.10145717 10.16459185 120.10145717 12 118 C12.29773168 115.94352296 12.29773168 115.94352296 12.24050903 113.54550171 C12.24325836 112.60878128 12.24600769 111.67206085 12.24884033 110.70695496 C12.24164978 109.67621353 12.23445923 108.64547211 12.22705078 107.58349609 C12.22734283 106.50055771 12.22763489 105.41761932 12.22793579 104.30186462 C12.22653828 100.70897512 12.21095718 97.11629094 12.1953125 93.5234375 C12.19158387 91.03764967 12.18873619 88.55186038 12.18673706 86.06607056 C12.17987126 80.18350914 12.16409547 74.30102398 12.14403808 68.41849387 C12.11950986 61.06546742 12.10875255 53.71243187 12.09765625 46.359375 C12.07618531 33.23954563 12.04241768 20.1197775 12 7 C10.75264433 6.3490741 9.50198168 5.70448331 8.25 5.0625 C7.55390625 4.70285156 6.8578125 4.34320313 6.140625 3.97265625 C4.09775567 3.04441818 2.18884624 2.46833422 0 2 C0 1.34 0 0.68 0 0 Z " fill="#F8F8F8" transform="translate(337,155)"/>
<path d="M0 0 C6.58337985 -0.24761005 13.16404116 -0.42883544 19.75097656 -0.54931641 C21.99006358 -0.59954195 24.22882362 -0.6677401 26.46679688 -0.75439453 C29.68962101 -0.87603754 32.90810845 -0.93246586 36.1328125 -0.9765625 C37.62846237 -1.05398178 37.62846237 -1.05398178 39.15432739 -1.13296509 C42.00439453 -1.13525391 42.00439453 -1.13525391 47 0 C48.98 3.3 50.96 6.6 53 10 C35.51 10 18.02 10 0 10 C0 6.7 0 3.4 0 0 Z " fill="#EDEDED" transform="translate(342,95)"/>
<path d="M0 0 C1.12329712 0.07069702 1.12329712 0.07069702 2.26928711 0.14282227 C3.07817383 0.19116211 3.88706055 0.23950195 4.72045898 0.28930664 C5.99566406 0.37341797 5.99566406 0.37341797 7.29663086 0.45922852 C8.57763672 0.53753906 8.57763672 0.53753906 9.88452148 0.61743164 C12.00135081 0.74751612 14.1177833 0.88402822 16.23413086 1.02172852 C16.65945726 12.17473193 15.12206272 23.05131364 13.23413086 34.02172852 C12.57413086 34.02172852 11.91413086 34.02172852 11.23413086 34.02172852 C11.01499023 33.17610352 10.79584961 32.33047852 10.57006836 31.45922852 C7.93300025 22.02581414 4.42839552 15.6625882 -2.76586914 9.02172852 C-2.10586914 8.03172852 -1.44586914 7.04172852 -0.76586914 6.02172852 C-1.56748705 3.35027315 -1.56748705 3.35027315 -2.76586914 1.02172852 C-1.76586914 0.02172852 -1.76586914 0.02172852 0 0 Z " fill="#F4F4F4" transform="translate(207.765869140625,154.978271484375)"/>
<path d="M0 0 C0 0.66 0 1.32 0 2 C-0.99 2.495 -0.99 2.495 -2 3 C0.83269666 4.41634833 3.47466438 4.3463005 6.625 4.5625 C7.81351563 4.64628906 9.00203125 4.73007813 10.2265625 4.81640625 C11.14179688 4.87699219 12.05703125 4.93757812 13 5 C13 5.33 13 5.66 13 6 C11.98421875 6.03738281 10.9684375 6.07476562 9.921875 6.11328125 C-2.85012523 6.68037177 -13.69495584 8.67217661 -25 15 C-25.33 14.01 -25.66 13.02 -26 12 C-26.99 12.495 -26.99 12.495 -28 13 C-30 11.625 -30 11.625 -32 10 C-32 9.34 -32 8.68 -32 8 C-22.02326995 2.75236444 -11.34534436 -0.33010956 0 0 Z " fill="#EDEDED" transform="translate(171,152)"/>
<path d="M0 0 C0.495 1.98 0.495 1.98 1 4 C-0.32 4 -1.64 4 -3 4 C-3 4.66 -3 5.32 -3 6 C1.455 6.99 1.455 6.99 6 8 C6 8.33 6 8.66 6 9 C-3.39479888 10.2571296 -12.76754491 11.23600366 -22.25 11.4375 C-23.03479736 11.47166016 -23.81959473 11.50582031 -24.62817383 11.54101562 C-28.72101967 11.57281501 -31.20626701 11.24265907 -34.421875 8.59765625 C-35.27265625 7.74042969 -36.1234375 6.88320313 -37 6 C-37.66 5.34 -38.32 4.68 -39 4 C-39 3.34 -39 2.68 -39 2 C-37.88238281 2.32226562 -36.76476562 2.64453125 -35.61328125 2.9765625 C-30.78594738 4.17622981 -26.1459076 4.38258456 -21.1875 4.375 C-20.31254883 4.37628906 -19.43759766 4.37757813 -18.53613281 4.37890625 C-11.78415837 4.26875168 -6.06128369 3.11405401 0 0 Z " fill="#F2F2F2" transform="translate(207,270)"/>
<path d="M0 0 C0 0.66 0 1.32 0 2 C-0.99 2.495 -0.99 2.495 -2 3 C0.83269666 4.41634833 3.47466438 4.3463005 6.625 4.5625 C7.81351563 4.64628906 9.00203125 4.73007813 10.2265625 4.81640625 C11.59941406 4.90728516 11.59941406 4.90728516 13 5 C13 5.33 13 5.66 13 6 C5.41 6.33 -2.18 6.66 -10 7 C-10.33 6.01 -10.66 5.02 -11 4 C-10.34 3.67 -9.68 3.34 -9 3 C-9.66 2.34 -10.32 1.68 -11 1 C-7.26562152 0.12132271 -3.83225427 -0.08912219 0 0 Z " fill="#DEDEDE" transform="translate(171,152)"/>
<path d="M0 0 C0.495 0.28875 0.99 0.5775 1.5 0.875 C4.91752035 2.41288416 8.3506202 3.14847805 12 4 C12 4.66 12 5.32 12 6 C3.09 6 -5.82 6 -15 6 C-15 5.67 -15 5.34 -15 5 C-14.08476562 4.93941406 -13.16953125 4.87882812 -12.2265625 4.81640625 C-10.44378906 4.69072266 -10.44378906 4.69072266 -8.625 4.5625 C-6.84996094 4.44068359 -6.84996094 4.44068359 -5.0390625 4.31640625 C-2.08481099 4.18915064 -2.08481099 4.18915064 0 3 C0 2.01 0 1.02 0 0 Z " fill="#D6D6D6" transform="translate(370,274)"/>
<path d="M0 0 C0.33 1.32 0.66 2.64 1 4 C-0.32 4 -1.64 4 -3 4 C-3 4.66 -3 5.32 -3 6 C1.455 6.99 1.455 6.99 6 8 C6 8.33 6 8.66 6 9 C4.39667209 9.08121924 2.79215974 9.13929134 1.1875 9.1875 C0.29417969 9.22230469 -0.59914062 9.25710938 -1.51953125 9.29296875 C-4.46382547 8.94521746 -5.08255443 8.1457129 -7 6 C-9.16299211 6.22757731 -9.16299211 6.22757731 -11 7 C-11 6.01 -11 5.02 -11 4 C-7.37 2.68 -3.74 1.36 0 0 Z " fill="#E6E6E6" transform="translate(207,270)"/>
<path d="M0 0 C0.33 0 0.66 0 1 0 C1.35205968 3.1685371 1.28286337 4.59267675 -0.5625 7.25 C-3.67334017 9.48342371 -6.22741269 9.70980098 -10 10 C-10.33 9.34 -10.66 8.68 -11 8 C-6.375 5 -6.375 5 -3 5 C-2.67 4.34 -2.34 3.68 -2 3 C-1.34 3.33 -0.68 3.66 0 4 C0 2.68 0 1.36 0 0 Z " fill="#0F0F0F" transform="translate(349,268)"/>
<path d="M0 0 C0.66 0 1.32 0 2 0 C2.1875 2.875 2.1875 2.875 2 6 C1.01 6.66 0.02 7.32 -1 8 C-1.33 8.99 -1.66 9.98 -2 11 C-3.65 11.66 -5.3 12.32 -7 13 C-3.535 6.565 -3.535 6.565 0 0 Z " fill="#E3E3E3" transform="translate(223,249)"/>
<path d="M0 0 C2.64 1.98 5.28 3.96 8 6 C7.01 6.66 6.02 7.32 5 8 C2.00675737 6.9024777 1.15389099 6.32317108 -0.25 3.375 C-0.4975 2.59125 -0.745 1.8075 -1 1 C-0.67 0.67 -0.34 0.34 0 0 Z " fill="#131313" transform="translate(125,262)"/>
<path d="M0 0 C0.99 0.33 1.98 0.66 3 1 C3.33 2.65 3.66 4.3 4 6 C4.99 6.33 5.98 6.66 7 7 C2.2482602 6.56802365 0.07999946 5.67230705 -3 2 C-2.01 1.34 -1.02 0.68 0 0 Z " fill="#1D1D1D" transform="translate(373,271)"/>
<path d="M0 0 C0 3.19633438 -0.33810135 4.34096216 -2 7 C-4.60319658 9.35127433 -5.42129926 10 -9 10 C-7.84906278 6.54718834 -6.6794007 5.61917837 -3.9375 3.3125 C-2.83728516 2.37857422 -2.83728516 2.37857422 -1.71484375 1.42578125 C-1.14894531 0.95527344 -0.58304688 0.48476562 0 0 Z " fill="#212121" transform="translate(145,167)"/>
<path d="M0 0 C0.33 0.99 0.66 1.98 1 3 C-2.63 3 -6.26 3 -10 3 C-10 2.34 -10 1.68 -10 1 C-6.61981469 -0.04005702 -3.5219721 -0.08004482 0 0 Z " fill="#E1E1E1" transform="translate(348,277)"/>
<path d="M0 0 C2.475 0.99 2.475 0.99 5 2 C3.35 3.65 1.7 5.3 0 7 C-0.99 6.01 -1.98 5.02 -3 4 C-2.01 3.34 -1.02 2.68 0 2 C0 1.34 0 0.68 0 0 Z " fill="#171717" transform="translate(131,160)"/>
<path d="M0 0 C3.63 0.33 7.26 0.66 11 1 C10.01 1.495 10.01 1.495 9 2 C9 2.66 9 3.32 9 4 C4.545 3.01 4.545 3.01 0 2 C0 1.34 0 0.68 0 0 Z " fill="#CCCCCC" transform="translate(337,155)"/>
<path d="M0 0 C2.64 0.66 5.28 1.32 8 2 C7.67 2.99 7.34 3.98 7 5 C2.25 4.25 2.25 4.25 0 2 C0 1.34 0 0.68 0 0 Z " fill="#DEDEDE" transform="translate(168,272)"/>
<path d="M0 0 C-0.55728913 3.34373475 -1.35173889 6.03312999 -3 9 C-3.66 8.34 -4.32 7.68 -5 7 C-4.75 3.9375 -4.75 3.9375 -4 1 C-2 0 -2 0 0 0 Z " fill="#EFEFEF" transform="translate(223,268)"/>
<path d="M0 0 C0.66 0.33 1.32 0.66 2 1 C1.67 1.99 1.34 2.98 1 4 C-1.5625 5.1875 -1.5625 5.1875 -4 6 C-4.33 4.68 -4.66 3.36 -5 2 C-3.35 2 -1.7 2 0 2 C0 1.34 0 0.68 0 0 Z " fill="#161616" transform="translate(208,266)"/>
<path d="M0 0 C2.125 0.9375 2.125 0.9375 4 2 C2.68 3.32 1.36 4.64 0 6 C-0.99 5.01 -1.98 4.02 -3 3 C-2 1 -2 1 0 0 Z " fill="#E2E2E2" transform="translate(138,168)"/>
<path d="M0 0 C-1.52708963 3.43595166 -3.59927045 6.11912454 -6 9 C-6.25 6.75 -6.25 6.75 -6 4 C-2.75675676 0 -2.75675676 0 0 0 Z " fill="#181818" transform="translate(126,171)"/>
<path d="M0 0 C0.33 0 0.66 0 1 0 C1.25 2.25 1.25 2.25 1 5 C-1 7.3125 -1 7.3125 -3 9 C-3.66 8.67 -4.32 8.34 -5 8 C-4.34 6.35 -3.68 4.7 -3 3 C-2.01 3.33 -1.02 3.66 0 4 C0 2.68 0 1.36 0 0 Z " fill="#2F2F2F" transform="translate(349,268)"/>
<path d="M0 0 C-0.99 0.495 -0.99 0.495 -2 1 C-2.33 1.99 -2.66 2.98 -3 4 C-4.98 3.34 -6.96 2.68 -9 2 C-4 -1.33333333 -4 -1.33333333 0 0 Z " fill="#212121" transform="translate(166,266)"/>
<path d="M0 0 C2.66666667 1.33333333 5.33333333 2.66666667 8 4 C7.01 5.32 6.02 6.64 5 8 C2.525 4.04 2.525 4.04 0 0 Z " fill="#202020" transform="translate(136,247)"/>
<path d="M0 0 C1.86323318 0.25288812 3.71708432 0.57690153 5.5625 0.9375 C6.57441406 1.13214844 7.58632812 1.32679688 8.62890625 1.52734375 C9.80259766 1.76130859 9.80259766 1.76130859 11 2 C11 2.33 11 2.66 11 3 C9.37536158 3.05395478 7.75021459 3.09277195 6.125 3.125 C5.22007812 3.14820313 4.31515625 3.17140625 3.3828125 3.1953125 C1 3 1 3 -1 1 C-0.67 0.67 -0.34 0.34 0 0 Z " fill="#D6D6D6" transform="translate(202,276)"/>
</svg>
