<?xml version="1.0" encoding="UTF-8"?>
<svg version="1.1" xmlns="http://www.w3.org/2000/svg" width="1638" height="445">
<path d="M0 0 C540.54 0 1081.08 0 1638 0 C1638 146.85 1638 293.7 1638 445 C1097.46 445 556.92 445 0 445 C0 298.15 0 151.3 0 0 Z " fill="#FEFEFE" transform="translate(0,0)"/>
<path d="M0 0 C411.84 0 823.68 0 1248 0 C1248 3.3 1248 6.6 1248 10 C836.16 10 424.32 10 0 10 C0 6.7 0 3.4 0 0 Z " fill="#0E0E0E" transform="translate(109,343)"/>
<path d="M0 0 C411.84 0 823.68 0 1248 0 C1248 3.3 1248 6.6 1248 10 C836.16 10 424.32 10 0 10 C0 6.7 0 3.4 0 0 Z " fill="#0F0F0F" transform="translate(342,110)"/>
<path d="M0 0 C1.9375 0.3125 1.9375 0.3125 4 1 C4.33 1.99 4.66 2.98 5 4 C5.86625 4.433125 5.86625 4.433125 6.75 4.875 C11.28372447 7.14186223 13.7945382 10.5890764 16 15 C17.485 15.495 17.485 15.495 19 16 C20.40234375 17.42578125 20.40234375 17.42578125 21.9375 19.3125 C25.03088922 22.95828016 28.29496657 26.38420091 31.6875 29.75 C32.45247803 30.51002319 32.45247803 30.51002319 33.23291016 31.28540039 C34.81998865 32.85892043 36.40954255 34.42989575 38 36 C50.18454036 48.02861388 50.18454036 48.02861388 55.61328125 54.390625 C57.31380114 56.36418611 59.12641758 58.19102387 61 60 C63.5792506 62.53972186 66.02217389 65.12451314 68.375 67.875 C71.90116716 71.98081108 75.72579422 75.74126258 79.57421875 79.54296875 C82.34196282 82.34636814 84.92033324 85.26989762 87.48046875 88.26171875 C88.80069048 89.77199811 90.20656263 91.20656263 91.625 92.625 C94.28652297 95.28652297 96.60566879 98.09657511 99 101 C99.14657863 65.85902357 99.14657863 65.85902357 98.79147339 30.72045898 C98.76391442 28.99578243 98.74313787 27.27098363 98.72927856 25.54614258 C98.70829934 23.15759478 98.66236314 20.77083512 98.609375 18.3828125 C98.60814133 17.68717194 98.60690765 16.99153137 98.6056366 16.27481079 C98.50359549 12.95710651 98.18329096 11.23838392 96.13671875 8.57666016 C93.42860387 6.57837338 91.58798345 6.40895159 88.25 6.25 C87.26515625 6.19328125 86.2803125 6.1365625 85.265625 6.078125 C84.51796875 6.05234375 83.7703125 6.0265625 83 6 C83 4.68 83 3.36 83 2 C102.305 2.495 102.305 2.495 122 3 C122 3.66 122 4.32 122 5 C121.36191406 5.20496094 120.72382812 5.40992188 120.06640625 5.62109375 C119.24011719 5.89050781 118.41382813 6.15992188 117.5625 6.4375 C116.73878906 6.70433594 115.91507813 6.97117188 115.06640625 7.24609375 C113.03780412 7.82155494 113.03780412 7.82155494 112 9 C111.88524108 11.92737472 111.83513029 14.83209755 111.82641602 17.76049805 C111.8163855 19.1414843 111.8163855 19.1414843 111.80615234 20.55036926 C111.79205513 22.56106404 111.78017616 24.57177527 111.77020454 26.58249474 C111.75378513 29.78534553 111.73053413 32.9880794 111.70530701 36.19087219 C111.63464713 45.30223709 111.57510696 54.41365618 111.52319336 63.52514648 C111.49096879 69.09610727 111.44956598 74.66694411 111.40299797 80.23780251 C111.38720039 82.34361288 111.37477936 84.44945187 111.36609077 86.55530357 C111.30657681 100.80346952 110.52872829 114.8319061 109 129 C105.60572049 128.26017634 104.1241622 127.44508821 101.75 124.875 C95.85081959 118.72532361 89.37855172 113.4246939 82.58984375 108.28515625 C79.73315052 105.76454458 77.3602566 103.02649449 74.88500977 100.13842773 C71.75810574 96.59114728 68.37443825 93.30979383 65 90 C60.3839933 85.47242255 55.94923782 80.88190121 51.72851562 75.98242188 C48.8261604 72.65373198 45.78334072 69.45893842 42.75 66.25 C41.42927353 64.84544123 40.10896423 63.44049008 38.7890625 62.03515625 C38.14614258 61.3508252 37.50322266 60.66649414 36.84082031 59.96142578 C29.99252732 52.66445153 23.29536695 45.31906519 17.0703125 37.47265625 C14.85128651 34.82238559 12.47524857 32.41056437 10 30 C7.94823316 32.05176684 8.82865404 36.18132386 8.80981445 38.91430664 C8.82155245 54.8598466 9.18715587 70.79053745 9.69271851 86.72799683 C9.77255575 89.28378519 9.84777361 91.83972204 9.91836548 94.39578247 C10.02105666 98.03661683 10.14272624 101.67634157 10.26953125 105.31640625 C10.29781006 106.42048828 10.32608887 107.52457031 10.35522461 108.66210938 C10.39502441 109.68699463 10.43482422 110.71187988 10.47583008 111.76782227 C10.50469803 112.66106705 10.53356598 113.55431183 10.56330872 114.47462463 C11.09555134 117.55257115 12.16923816 119.48388174 14 122 C16.6253715 123.20248653 16.6253715 123.20248653 19.5625 123.75 C24.97066015 124.98533007 24.97066015 124.98533007 27 126 C27 126.66 27 127.32 27 128 C26.25878906 127.9278125 25.51757812 127.855625 24.75390625 127.78125 C11.46447606 126.61008847 -1.72847992 126.56800554 -15 128 C-15 127.34 -15 126.68 -15 126 C-13.23289901 124.76564939 -11.40980432 123.61073584 -9.5625 122.5 C-5.62163235 120.37758703 -5.62163235 120.37758703 -3 117 C-2.90082498 115.60580355 -2.86227797 114.20704307 -2.85523987 112.80934143 C-2.84834137 111.93058853 -2.84144287 111.05183563 -2.83433533 110.14645386 C-2.83172195 109.17974762 -2.82910858 108.21304138 -2.82641602 107.21704102 C-2.819729 106.2005397 -2.81304199 105.18403839 -2.80615234 104.13673401 C-2.79207528 101.92249831 -2.78018975 99.70824787 -2.77020454 97.49398994 C-2.75380974 93.98323922 -2.73056825 90.47259624 -2.70530701 86.9618988 C-2.63451855 76.97733943 -2.57462159 66.99273404 -2.52319336 57.00805664 C-2.49127279 50.90432005 -2.44995469 44.80070387 -2.40299797 38.69706535 C-2.38704446 36.37562176 -2.37469244 34.0541504 -2.36609077 31.73266792 C-2.35383884 28.47082549 -2.32964494 25.2092619 -2.30297852 21.94750977 C-2.30238937 20.99902161 -2.30180023 20.05053345 -2.30119324 19.07330322 C-2.23098866 12.5419132 -1.34885284 6.38760625 0 0 Z " fill="#0A0A0A" transform="translate(1087,167)"/>
<path d="M0 0 C0.99 0 1.98 0 3 0 C4.20997006 1.36917664 5.4181133 2.74425118 6.5234375 4.19921875 C8.52240707 6.6371155 10.76124933 8.77895761 13 11 C14.08617224 12.08057504 15.17218183 13.16131358 16.25805664 14.2421875 C16.84539078 14.82629395 17.43272491 15.41040039 18.03785706 16.01220703 C20.68536082 18.64626862 23.33016001 21.28303904 25.97485352 23.91992188 C27.36751656 25.30753609 28.76107297 26.69425425 30.15551758 28.08007812 C32.18027832 30.09267742 34.2017636 32.10851762 36.22265625 34.125 C36.84253922 34.73972168 37.46242218 35.35444336 38.10108948 35.98779297 C41.29644143 39.18273178 44.22319732 42.42540943 47 46 C49.39078043 48.45054994 51.82550157 50.83493392 54.3125 53.1875 C56 55 56 55 56 57 C56.83724609 57.33064453 56.83724609 57.33064453 57.69140625 57.66796875 C60.73524252 59.42422622 62.62165491 61.67550536 64.9375 64.3125 C68.73762367 68.61774057 72.60769759 72.77268397 76.8125 76.6875 C78 78 78 78 78 80 C79.485 80.495 79.485 80.495 81 81 C82.71875 82.7421875 82.71875 82.7421875 84.5 84.875 C87.00265321 87.85384531 87.00265321 87.85384531 89.71875 90.6328125 C91 92 91 92 91 94 C91.66 94 92.32 94 93 94 C94.5078125 95.53125 94.5078125 95.53125 96.125 97.5 C96.66382813 98.1496875 97.20265625 98.799375 97.7578125 99.46875 C98.16773438 99.9740625 98.57765625 100.479375 99 101 C99.10165033 78.424243 99.12882452 55.84949946 98.68161011 33.27697754 C98.64394742 31.34629292 98.60953043 29.41554219 98.57839966 27.48474121 C98.53352506 24.7889955 98.47582199 22.09384261 98.4140625 19.3984375 C98.40250626 18.60257233 98.39095001 17.80670715 98.37904358 16.98672485 C98.28969884 11.65839267 98.28969884 11.65839267 96 7 C93.13288112 6.07747807 93.13288112 6.07747807 89.875 5.75 C88.77929688 5.60046875 87.68359375 5.4509375 86.5546875 5.296875 C85.71164062 5.19890625 84.86859375 5.1009375 84 5 C83.505 3.515 83.505 3.515 83 2 C102.305 2.495 102.305 2.495 122 3 C122 3.66 122 4.32 122 5 C121.36191406 5.20496094 120.72382812 5.40992188 120.06640625 5.62109375 C119.24011719 5.89050781 118.41382813 6.15992188 117.5625 6.4375 C116.73878906 6.70433594 115.91507813 6.97117188 115.06640625 7.24609375 C113.03780412 7.82155494 113.03780412 7.82155494 112 9 C111.88540041 11.5694975 111.83515214 14.11319484 111.82641602 16.68383789 C111.8163855 17.89442619 111.8163855 17.89442619 111.80615234 19.12947083 C111.79204882 20.89459251 111.78017192 22.659733 111.77020454 24.42488289 C111.7537328 27.2524312 111.73047081 30.07984985 111.70530701 32.90733337 C111.63485635 40.9525594 111.57567065 48.99785051 111.52319336 57.04321289 C111.36220694 81.0956993 110.8969538 105.01472855 109 129 C105.75436026 127.74979084 103.27257411 126.65382022 100.6875 124.3125 C100.08808594 123.77625 99.48867188 123.24 98.87109375 122.6875 C98.25363281 122.130625 97.63617187 121.57375 97 121 C96.39285156 120.484375 95.78570313 119.96875 95.16015625 119.4375 C89.10854383 114.28929802 83.57593797 108.65095059 78 103 C75.06147642 100.0516156 72.1095136 97.11715299 69.15234375 94.1875 C67.74734458 92.79171826 66.34239779 91.39588378 64.9375 90 C64.23044922 89.30132812 63.52339844 88.60265625 62.79492188 87.8828125 C59.29031611 84.39466028 56.05750972 80.89257152 53 77 C51.3457449 75.32101351 49.67776507 73.65549386 48 72 C45.85394309 69.7486622 43.73865842 67.46923768 41.625 65.1875 C41.04484131 64.56222412 40.46468262 63.93694824 39.86694336 63.29272461 C36.51647479 59.67116883 33.2345072 56.00473059 30.015625 52.265625 C26.41846214 48.22230241 22.68941308 44.29901385 18.97290039 40.36547852 C16.43982563 37.67270762 14.00163253 35.00205383 11.69921875 32.10546875 C10.16927433 29.91165193 10.16927433 29.91165193 8 29 C8.11954862 34.60110248 8.24385989 40.20207319 8.37231445 45.80297852 C8.41524488 47.70268996 8.45694295 49.60242972 8.49731445 51.50219727 C8.69880102 60.94719098 8.95159358 70.33759875 9.77026367 79.75268555 C10.04887138 83.69079509 10.15926606 87.62007023 10.24609375 91.56640625 C10.27113228 92.66960457 10.27113228 92.66960457 10.29667664 93.79508972 C10.36305416 96.82529727 10.42553932 99.8554825 10.47680664 102.88598633 C10.51646021 105.13389276 10.56790727 107.38128493 10.62109375 109.62890625 C10.6295079 110.3111879 10.63792206 110.99346954 10.64659119 111.69642639 C10.73916183 115.24774979 10.90102775 118.0591225 13 121 C15.82333197 122.24452481 15.82333197 122.24452481 19.0625 123.0625 C22.34765625 123.97265625 22.34765625 123.97265625 25 125 C25.33 125.99 25.66 126.98 26 128 C12.47 128 -1.06 128 -15 128 C-13.72934824 124.18804471 -12.44433393 123.85047524 -9 121.9375 C-5.34532309 120.10856437 -5.34532309 120.10856437 -3 117 C-2.90082498 115.60580355 -2.86227797 114.20704307 -2.85523987 112.80934143 C-2.84834137 111.93058853 -2.84144287 111.05183563 -2.83433533 110.14645386 C-2.83172195 109.17974762 -2.82910858 108.21304138 -2.82641602 107.21704102 C-2.819729 106.2005397 -2.81304199 105.18403839 -2.80615234 104.13673401 C-2.79207528 101.92249831 -2.78018975 99.70824787 -2.77020454 97.49398994 C-2.75380974 93.98323922 -2.73056825 90.47259624 -2.70530701 86.9618988 C-2.63451855 76.97733943 -2.57462159 66.99273404 -2.52319336 57.00805664 C-2.49127279 50.90432005 -2.44995469 44.80070387 -2.40299797 38.69706535 C-2.38704446 36.37562176 -2.37469244 34.0541504 -2.36609077 31.73266792 C-2.35383884 28.47082549 -2.32964494 25.2092619 -2.30297852 21.94750977 C-2.30238937 20.99902161 -2.30180023 20.05053345 -2.30119324 19.07330322 C-2.23098866 12.5419132 -1.34885284 6.38760625 0 0 Z " fill="#070707" transform="translate(838,167)"/>
<path d="M0 0 C13.53 0 27.06 0 41 0 C41 0.66 41 1.32 41 2 C40.37351562 2.17015625 39.74703125 2.3403125 39.1015625 2.515625 C38.28429687 2.75796875 37.46703125 3.0003125 36.625 3.25 C35.81289063 3.48203125 35.00078125 3.7140625 34.1640625 3.953125 C31.44729504 5.26737352 31.10574387 6.23817688 30 9 C29.67797584 11.13633955 29.67797584 11.13633955 29.68115234 13.40136719 C29.66109131 14.27390137 29.64103027 15.14643555 29.62036133 16.04541016 C29.60900146 16.95339355 29.5976416 17.86137695 29.5859375 18.796875 C29.56829346 19.63814941 29.55064941 20.47942383 29.5324707 21.34619141 C29.46953413 24.48060193 29.42325737 27.61532911 29.375 30.75 C29.25125 37.7625 29.1275 44.775 29 52 C53.09 52 77.18 52 102 52 C101.87625 45.1525 101.7525 38.305 101.625 31.25 C101.59100098 29.0937207 101.55700195 26.93744141 101.52197266 24.71582031 C101.48676101 23.00323945 101.45083912 21.29067297 101.4140625 19.578125 C101.40270264 18.6917334 101.39134277 17.8053418 101.37963867 16.89208984 C101.35957764 16.0398584 101.3395166 15.18762695 101.31884766 14.30957031 C101.30552399 13.57232727 101.29220032 12.83508423 101.2784729 12.07550049 C100.95345329 9.65308032 100.3148271 8.05779411 99 6 C96.14913674 4.64616437 96.14913674 4.64616437 92.875 3.75 C91.77929688 3.41484375 90.68359375 3.0796875 89.5546875 2.734375 C88.71164062 2.49203125 87.86859375 2.2496875 87 2 C87 1.34 87 0.68 87 0 C100.86 0.33 114.72 0.66 129 1 C127 3 127 3 123.4375 4.5 C119.93797326 5.58995587 119.93797326 5.58995587 119 8 C118.90629089 9.38026244 118.87370511 10.7649368 118.87301636 12.14837646 C118.87019653 13.01752686 118.86737671 13.88667725 118.86447144 14.78216553 C118.86649567 15.73802551 118.8685199 16.6938855 118.87060547 17.67871094 C118.86885315 18.68373657 118.86710083 19.68876221 118.86529541 20.72424316 C118.86087898 24.06097113 118.86381505 27.39764645 118.8671875 30.734375 C118.86651419 33.04884857 118.86554394 35.36332208 118.86428833 37.67779541 C118.86281147 42.53683137 118.86496477 47.39584898 118.86962891 52.25488281 C118.87531348 58.48029932 118.87205519 64.70567259 118.86605644 70.93108749 C118.86243968 75.71462325 118.86359478 80.4981488 118.86618423 85.28168488 C118.86685107 87.57658137 118.86603356 89.8714788 118.86370468 92.16637421 C118.86116132 95.37884466 118.86504315 98.59124564 118.87060547 101.80371094 C118.86756912 103.22535553 118.86756912 103.22535553 118.86447144 104.67572021 C118.8789735 109.20367978 118.90900089 113.57574567 120 118 C121.73818678 119.3903059 121.73818678 119.3903059 124 120 C124.77859375 120.28101563 125.5571875 120.56203125 126.359375 120.8515625 C127.54273438 121.23441406 127.54273438 121.23441406 128.75 121.625 C129.94882812 122.01558594 129.94882812 122.01558594 131.171875 122.4140625 C131.77515625 122.60742188 132.3784375 122.80078125 133 123 C133 123.66 133 124.32 133 125 C119.14 124.67 105.28 124.34 91 124 C91 123.34 91 122.68 91 122 C91.928125 121.938125 92.85625 121.87625 93.8125 121.8125 C97.1090156 121.30520537 97.1090156 121.30520537 98.8125 118.8125 C101.57620223 112.26688946 101.20881536 105.24832677 101.31640625 98.2578125 C101.33505737 97.26128662 101.3537085 96.26476074 101.3729248 95.23803711 C101.44095878 91.53377718 101.50127533 87.82937874 101.5625 84.125 C101.706875 75.83375 101.85125 67.5425 102 59 C77.91 59 53.82 59 29 59 C29.103125 67.435625 29.20625 75.87125 29.3125 84.5625 C29.33739502 87.2135376 29.36229004 89.8645752 29.38793945 92.59594727 C29.42024239 94.71111805 29.45361794 96.82627283 29.48828125 98.94140625 C29.49764709 100.57184875 29.49764709 100.57184875 29.50720215 102.23522949 C29.62032674 108.21986329 30.02166297 112.74854137 33 118 C33.99 118.495 33.99 118.495 35 119 C35 119.66 35 120.32 35 121 C38.3 121.66 41.6 122.32 45 123 C45 123.66 45 124.32 45 125 C30.48 125 15.96 125 1 125 C1 124.34 1 123.68 1 123 C1.71027344 122.74605469 2.42054688 122.49210937 3.15234375 122.23046875 C4.07144531 121.88628906 4.99054688 121.54210937 5.9375 121.1875 C6.85402344 120.85105469 7.77054687 120.51460938 8.71484375 120.16796875 C11.3340424 119.16590906 11.3340424 119.16590906 12 116 C12.08903619 114.48982826 12.12197948 112.97600422 12.12025452 111.46321106 C12.12162918 110.53353012 12.12300385 109.60384918 12.12442017 108.64599609 C12.12082489 107.62820068 12.11722961 106.61040527 12.11352539 105.56176758 C12.11367142 104.48843674 12.11381744 103.4151059 12.1139679 102.30924988 C12.1132701 98.75432325 12.10548386 95.19944874 12.09765625 91.64453125 C12.0957916 89.18259205 12.09436792 86.72065247 12.09336853 84.25871277 C12.08954706 77.77319314 12.07971991 71.28769585 12.06866455 64.80218506 C12.05844249 58.18648582 12.0538692 51.57078298 12.04882812 44.95507812 C12.03809734 31.97004255 12.02121706 18.98502246 12 6 C8.05611091 4.37885042 4.11384066 3.12928959 0 2 C0 1.34 0 0.68 0 0 Z " fill="#060606" transform="translate(337,170)"/>
<path d="M0 0 C0.66 0 1.32 0 2 0 C3.06343879 2.87465587 4.12594106 5.7496498 5.1875 8.625 C5.50702637 9.4900415 5.82655273 10.35508301 6.15576172 11.24633789 C8.38303394 17.28947614 10.55372521 23.34852343 12.6640625 29.43359375 C14.63057956 34.68338931 16.82569223 39.83345687 19 45 C19.84569633 47.02316832 20.69075649 49.04660269 21.53515625 51.0703125 C21.95216797 52.06933594 22.36917969 53.06835938 22.79882812 54.09765625 C23.21583984 55.09667969 23.63285156 56.09570312 24.0625 57.125 C24.48337891 58.13175781 24.90425781 59.13851562 25.33789062 60.17578125 C27.27686202 64.82330027 29.19797187 69.47520257 31.0546875 74.15625 C35.92704264 86.38275916 41.43694007 98.32080924 47.625 109.9375 C48.05562744 110.7713623 48.48625488 111.60522461 48.92993164 112.46435547 C52.28358543 118.60840582 55.94863368 122.58590012 62.65234375 124.92578125 C63.40644531 125.05339844 64.16054688 125.18101562 64.9375 125.3125 C65.70964844 125.45300781 66.48179687 125.59351563 67.27734375 125.73828125 C68.13005859 125.86783203 68.13005859 125.86783203 69 126 C69 126.66 69 127.32 69 128 C54.48 128 39.96 128 25 128 C25 127.34 25 126.68 25 126 C27.64 124.68 30.28 123.36 33 122 C32.58198033 116.84442402 30.63118885 112.86441718 28.46484375 108.26171875 C26.79074107 104.53405011 25.31046168 100.76208649 23.875 96.9375 C23.63370361 96.30150879 23.39240723 95.66551758 23.14379883 95.01025391 C21.1750276 89.71577375 19.6329014 84.44300466 18 79 C5.79 79.33 -6.42 79.66 -19 80 C-23.80065547 92.67823569 -23.80065547 92.67823569 -28.375 105.4375 C-28.63410156 106.14841797 -28.89320313 106.85933594 -29.16015625 107.59179688 C-30.85913592 112.54940158 -32.08175515 117.76877467 -31 123 C-28.08235 124.9451 -26.37462715 125.45276317 -23 126 C-23 126.66 -23 127.32 -23 128 C-35.54 128 -48.08 128 -61 128 C-58.27441092 125.27441092 -55.10668927 124.15605638 -51.60546875 122.609375 C-44.2069078 118.03934935 -41.96559149 110.72692099 -39 102.9375 C-38.55994629 101.80860352 -38.11989258 100.67970703 -37.66650391 99.51660156 C-36.43388288 96.34831238 -35.21530198 93.17496298 -34 90 C-33.50894936 88.73523511 -33.01702636 87.47080774 -32.5234375 86.20703125 C-31.33369715 83.1436522 -30.16679089 80.07219252 -29 77 C-28.35592599 75.32664685 -27.71134754 73.65348782 -27.06640625 71.98046875 C-23.86805583 63.66327694 -20.7236288 55.36720096 -17.9921875 46.8828125 C-16.55675704 42.71215234 -14.87450578 38.64570296 -13.21044922 34.56274414 C-11.29597208 29.83097422 -9.64575374 25.0569799 -8.07421875 20.203125 C-6.73445497 16.20819302 -5.2858954 12.25978227 -3.8125 8.3125 C-3.55017578 7.60424072 -3.28785156 6.89598145 -3.01757812 6.16625977 C-1.12181068 1.12181068 -1.12181068 1.12181068 0 0 Z " fill="#0A0A0A" transform="translate(643,167)"/>
<path d="M0 0 C1.90289795 0.00483398 1.90289795 0.00483398 3.84423828 0.00976562 C18.05110815 0.21214766 31.99013101 2.17910311 46 4.4375 C46.14828723 12.73128712 46.20249921 20.72294298 44.5 28.875 C44.35691406 29.61814453 44.21382813 30.36128906 44.06640625 31.12695312 C43.72331785 32.89957653 43.36366088 34.6689825 43 36.4375 C42.34 36.4375 41.68 36.4375 41 36.4375 C40.85304688 35.8084375 40.70609375 35.179375 40.5546875 34.53125 C39.03366746 28.72689765 37.07743774 24.62676914 33.20703125 20.03125 C32 18.4375 32 18.4375 32 16.4375 C30.948125 16.06625 30.948125 16.06625 29.875 15.6875 C27 14.4375 27 14.4375 24.375 12.5 C12.77770594 5.41276474 -3.49562918 5.7414971 -16.5 8.5 C-25.14960965 11.08874842 -32.93593889 15.76703278 -39 22.4375 C-39.66 22.4375 -40.32 22.4375 -41 22.4375 C-41.2578125 22.96214844 -41.515625 23.48679688 -41.78125 24.02734375 C-42.71164547 25.86726042 -43.67641944 27.68983316 -44.65625 29.50390625 C-48.46110546 36.71862159 -51.40372214 43.20673595 -52 51.4375 C-52.13921875 53.34982422 -52.13921875 53.34982422 -52.28125 55.30078125 C-53.09052874 72.38710128 -47.94817969 88.71059132 -36.625 101.6875 C-24.78949649 114.1761333 -12.20243677 122.31053303 5.49194336 122.91259766 C16.74309861 123.01900636 26.55234031 121.81301275 35.07421875 113.78515625 C39.1393658 108.82946989 42.04616421 103.10163725 45 97.4375 C45.66 97.4375 46.32 97.4375 47 97.4375 C47.30344306 105.96762148 47.5007635 113.50457721 44 121.4375 C43.33087947 123.10318302 42.66368053 124.76964198 42 126.4375 C29.41830672 128.57042076 16.95092231 129.76729878 4.19674683 129.859375 C2.79818135 129.86961402 1.3996451 129.88646254 0.00125122 129.91064453 C-19.4241796 130.20581667 -37.60225425 125.05698923 -52 111.4375 C-64.13921551 98.60461503 -68.9083021 83.65810525 -69.375 66.3125 C-68.89276641 49.26072039 -62.75747897 31.14068924 -51 18.4375 C-50.01 18.1075 -49.02 17.7775 -48 17.4375 C-47.53787109 16.509375 -47.53787109 16.509375 -47.06640625 15.5625 C-43.92994545 9.31255613 -34.33654857 5.66600988 -28 3.4375 C-18.63312583 0.91770329 -9.67864634 -0.07829564 0 0 Z " fill="#090909" transform="translate(178,166.5625)"/>
<path d="M0 0 C-0.38577055 7.74201581 -1.42388772 14.67671225 -4 22 C-4.66 22 -5.32 22 -6 22 C-6.185625 20.7625 -6.37125 19.525 -6.5625 18.25 C-7.18716725 15.69248552 -7.58764263 14.36055879 -9.5859375 12.61328125 C-14.33421958 9.91858108 -18.38301425 8.87471523 -23.76171875 8.68359375 C-25.27318481 8.62643188 -25.27318481 8.62643188 -26.81518555 8.56811523 C-28.09304932 8.52501221 -29.37091309 8.48190918 -30.6875 8.4375 C-34.750625 8.293125 -38.81375 8.14875 -43 8 C-43 23.84 -43 39.68 -43 56 C-36.1009375 55.8453125 -36.1009375 55.8453125 -29.0625 55.6875 C-27.63043213 55.66260498 -26.19836426 55.63770996 -24.72290039 55.61206055 C-17.52042895 55.40558668 -11.70135021 54.65069314 -5 52 C-4.34 52 -3.68 52 -3 52 C-2.66146705 60.16240568 -3.70098079 67.95072024 -5 76 C-8 75 -8 75 -9.02734375 73.22265625 C-9.6327904 71.78569489 -10.23696316 70.3481961 -10.83984375 68.91015625 C-12.30876883 66.49162303 -13.34887543 65.95440484 -16 65 C-21.42713628 63.87756592 -26.85487804 63.67767649 -32.375 63.4375 C-33.30183594 63.39431641 -34.22867187 63.35113281 -35.18359375 63.30664062 C-37.45560294 63.20123814 -39.72770925 63.09911394 -42 63 C-41.98371587 69.74490907 -41.92890274 76.48871996 -41.84741211 83.2331543 C-41.82422858 85.52702717 -41.80983559 87.82100655 -41.80444336 90.11499023 C-41.7951568 93.41457516 -41.75417012 96.71248414 -41.70703125 100.01171875 C-41.7109639 101.03585373 -41.71489655 102.05998871 -41.71894836 103.11515808 C-41.60877715 109.06306254 -41.60877715 109.06306254 -38.59887695 114.1015625 C-31.45302967 119.32148814 -23.78373782 121.26947452 -15 120 C-9.20146088 118.31887315 -4.83766548 115.7406456 -1 111 C0.79320824 107.83354526 0.79320824 107.83354526 2 105 C2.33 105 2.66 105 3 105 C2.18441118 120.47472465 2.18441118 120.47472465 0 126 C-2.85570699 127.4278535 -5.27714356 127.11941486 -8.46923828 127.11352539 C-9.46454056 127.11374443 -9.46454056 127.11374443 -10.47994995 127.1139679 C-12.67677053 127.11327031 -14.8735067 127.10548514 -17.0703125 127.09765625 C-18.59203037 127.09579152 -20.11374884 127.09436788 -21.63546753 127.09336853 C-25.64351047 127.08954767 -29.65151726 127.07972104 -33.6595459 127.06866455 C-37.74828604 127.05844118 -41.83703201 127.05386892 -45.92578125 127.04882812 C-53.95053744 127.0380984 -61.97526422 127.02102713 -70 127 C-70 126.34 -70 125.68 -70 125 C-68.9275 124.814375 -67.855 124.62875 -66.75 124.4375 C-63.46745387 123.47084381 -63.00550863 123.00729296 -60.79400635 120.07945251 C-58.27810924 115.28861635 -58.4684307 110.59568432 -58.54589844 105.29125977 C-58.54531433 104.23685196 -58.54473022 103.18244415 -58.54412842 102.09608459 C-58.54690448 98.62751803 -58.57797519 95.15982182 -58.609375 91.69140625 C-58.61683905 89.28002899 -58.62253121 86.86864564 -58.62652588 84.45726013 C-58.64176907 78.1228855 -58.68104021 71.78888005 -58.7253418 65.45465088 C-58.76632248 58.98609409 -58.78454291 52.51747742 -58.8046875 46.04882812 C-58.84753519 33.36572827 -58.91499786 20.68288381 -59 8 C-59.67546875 7.80664062 -60.3509375 7.61328125 -61.046875 7.4140625 C-62.38492187 7.02347656 -62.38492187 7.02347656 -63.75 6.625 C-64.63171875 6.36976563 -65.5134375 6.11453125 -66.421875 5.8515625 C-68.76080572 5.0790066 -70.83442562 4.16374324 -73 3 C-73 2.34 -73 1.68 -73 1 C-63.77729331 0.86945089 -54.55458451 0.73905264 -45.33187294 0.60884857 C-41.04969809 0.54838906 -36.76752399 0.487877 -32.48535156 0.42724609 C-28.35512843 0.36876854 -24.22490339 0.31042738 -20.09467697 0.25218201 C-18.51657416 0.22990304 -16.93847204 0.20757439 -15.36037064 0.18519592 C-13.15512521 0.15393254 -10.94987739 0.12284362 -8.74462891 0.09179688 C-7.48776276 0.07403198 -6.23089661 0.05626709 -4.9359436 0.03796387 C-3.29071794 0.01668991 -1.6453632 0 0 0 Z " fill="#060606" transform="translate(1394,168)"/>
<path d="M0 0 C0 0.66 0 1.32 0 2 C-1.27057182 2.47985967 -2.54146848 2.9588593 -3.8125 3.4375 C-4.87404297 3.83775391 -4.87404297 3.83775391 -5.95703125 4.24609375 C-7.62672396 4.86225186 -9.31157704 5.43719235 -11 6 C-13.5766551 10.41007664 -13.29587676 15.02556191 -13.29052734 19.9777832 C-13.29724457 20.87274506 -13.30396179 21.76770691 -13.31088257 22.68978882 C-13.32985407 25.64350971 -13.33378645 28.59700324 -13.3359375 31.55078125 C-13.34236638 33.60955396 -13.34909481 35.66832576 -13.35610962 37.72709656 C-13.36808053 42.04196286 -13.37179067 46.35674912 -13.37060547 50.67163086 C-13.37040238 56.18960879 -13.39769543 61.70707112 -13.43214989 67.22492695 C-13.45443314 71.47755776 -13.45844256 75.73006482 -13.45738602 79.98274803 C-13.45974017 82.01643842 -13.46855319 84.05013232 -13.48405075 86.08376503 C-13.50373782 88.93421714 -13.49786177 91.78356168 -13.48583984 94.6340332 C-13.50269836 95.88353508 -13.50269836 95.88353508 -13.51989746 97.15827942 C-13.44677703 104.01176143 -11.32532735 108.95301933 -7.1875 114.375 C-0.58649651 119.27860259 8.1535341 118.71250542 16 118 C23.59395104 116.03739298 30.08588468 111.21354741 34.3125 104.625 C34.869375 103.75875 35.42625 102.8925 36 102 C36.66 102 37.32 102 38 102 C37.93904616 104.31319807 37.85002054 106.62566164 37.75 108.9375 C37.70359375 110.22527344 37.6571875 111.51304687 37.609375 112.83984375 C37 117 37 117 33 126 C-3.63 125.505 -3.63 125.505 -41 125 C-39.35 123.68 -37.7 122.36 -36 121 C-32.71200627 118.19911645 -31.19877208 115.27909264 -30.81778908 110.91079521 C-30.74652042 108.28544836 -30.74136065 105.66705743 -30.75708008 103.04077148 C-30.75423256 101.54238739 -30.75423256 101.54238739 -30.75132751 100.01373291 C-30.74762674 96.71610636 -30.75831387 93.41870069 -30.76953125 90.12109375 C-30.77072352 87.82853725 -30.77117611 85.53598026 -30.7709198 83.24342346 C-30.77248344 78.44097837 -30.78076448 73.63860795 -30.79418945 68.83618164 C-30.81118861 62.67678793 -30.81500342 56.51747621 -30.81424427 50.35806179 C-30.81451603 45.62522091 -30.81999801 40.89239798 -30.82724571 36.15956306 C-30.83043016 33.88813475 -30.83239927 31.6167044 -30.83313942 29.34527397 C-30.83530479 26.17342528 -30.84405315 23.00166394 -30.85473633 19.82983398 C-30.85428314 18.88894424 -30.85382996 17.9480545 -30.85336304 16.97865295 C-30.85762802 16.11372223 -30.86189301 15.2487915 -30.86628723 14.35765076 C-30.86796308 13.6082746 -30.86963892 12.85889845 -30.87136555 12.08681393 C-31.00555501 9.90988213 -31.27976169 8.06084997 -32 6 C-34.23259665 4.77227173 -34.23259665 4.77227173 -37 4 C-38.093125 3.62875 -39.18625 3.2575 -40.3125 2.875 C-41.199375 2.58625 -42.08625 2.2975 -43 2 C-43 1.67 -43 1.34 -43 1 C-38.16198967 0.8560845 -33.32393686 0.71372522 -28.48583984 0.57275391 C-26.84292389 0.52467014 -25.20001991 0.47617489 -23.55712891 0.42724609 C-21.18395029 0.35664151 -18.81073127 0.28755922 -16.4375 0.21875 C-15.71320801 0.19687622 -14.98891602 0.17500244 -14.24267578 0.15246582 C-9.49309465 0.01664638 -4.75155127 -0.01870689 0 0 Z " fill="#070707" transform="translate(1552,169)"/>
<path d="M0 0 C2.19872214 2.19872214 2.61050223 3.41548629 3.515625 6.33984375 C3.79462646 7.22945801 4.07362793 8.11907227 4.36108398 9.03564453 C4.65442627 9.99325684 4.94776855 10.95086914 5.25 11.9375 C5.87093799 13.93364221 6.49203482 15.92973501 7.11328125 17.92578125 C7.42604004 18.93721191 7.73879883 19.94864258 8.06103516 20.99072266 C8.95258552 23.84804188 9.86709453 26.69661082 10.79296875 29.54296875 C11.07043945 30.40092041 11.34791016 31.25887207 11.63378906 32.14282227 C12.15924929 33.76565159 12.6883952 35.38729335 13.22167969 37.00756836 C14.35399052 40.53691445 15 43.25677913 15 47 C5.1 47 -4.8 47 -15 47 C-13.87486073 39.12402512 -13.87486073 39.12402512 -12.81665039 35.96411133 C-12.58293228 35.25680374 -12.34921417 34.54949615 -12.1084137 33.820755 C-11.85736374 33.08197617 -11.60631378 32.34319733 -11.34765625 31.58203125 C-11.08746201 30.80236496 -10.82726776 30.02269867 -10.55918884 29.21940613 C-10.01146551 27.58224505 -9.46084618 25.94605027 -8.9074707 24.31079102 C-8.06222361 21.81168281 -7.22669537 19.30948287 -6.39257812 16.80664062 C-5.8573377 15.21074727 -5.32154929 13.61503757 -4.78515625 12.01953125 C-4.41161766 10.90225395 -4.41161766 10.90225395 -4.03053284 9.7624054 C-2.88483134 6.38701745 -1.72334432 3.12728666 0 0 Z " fill="#F4F4F4" transform="translate(642,192)"/>
<path d="M0 0 C0.66 0 1.32 0 2 0 C2.30344306 8.53012148 2.5007635 16.06707721 -1 24 C-1.66912053 25.66568302 -2.33631947 27.33214198 -3 29 C-14.48054484 30.77812091 -25.93275057 32.30844384 -37.5625 32.5 C-38.42319092 32.53029297 -39.28388184 32.56058594 -40.1706543 32.59179688 C-44.3673438 32.59513122 -47.10100582 32.35602721 -50.41015625 29.64453125 C-51.26480469 28.77183594 -52.11945313 27.89914062 -53 27 C-53.55429688 26.47792969 -54.10859375 25.95585937 -54.6796875 25.41796875 C-55.78645833 24.27864583 -56.89322917 23.13932292 -58 22 C-57.43796875 22.2165625 -56.8759375 22.433125 -56.296875 22.65625 C-44.81179252 26.46112395 -29.47008865 27.39622979 -18.24609375 22.30078125 C-8.98824811 16.93928108 -4.81070789 9.22478827 0 0 Z " fill="#0A0A0A" transform="translate(223,264)"/>
<path d="M0 0 C-0.99 0.99 -1.98 1.98 -3 3 C-0.16730334 4.41634833 2.47466438 4.3463005 5.625 4.5625 C6.81351563 4.64628906 8.00203125 4.73007813 9.2265625 4.81640625 C10.14179688 4.87699219 11.05703125 4.93757812 12 5 C12 5.33 12 5.66 12 6 C10.98421875 6.03738281 9.9684375 6.07476562 8.921875 6.11328125 C-5.77153637 6.76225818 -20.3067155 8.80196375 -31.125 19.9375 C-31.74375 20.618125 -32.3625 21.29875 -33 22 C-33.66 22 -34.32 22 -35 22 C-35.28875 22.61875 -35.5775 23.2375 -35.875 23.875 C-37 26 -37 26 -39 28 C-39.33 27.01 -39.66 26.02 -40 25 C-39.67 24.34 -39.34 23.68 -39 23 C-39.99 22.67 -40.98 22.34 -42 22 C-42.66 22.66 -43.32 23.32 -44 24 C-45.98821313 24.39764263 -47.98944339 24.73775349 -50 25 C-49.04956626 23.66102417 -48.08940853 22.32894573 -47.125 21 C-46.32449219 19.88625 -46.32449219 19.88625 -45.5078125 18.75 C-44.76144531 17.88375 -44.76144531 17.88375 -44 17 C-43.34 17 -42.68 17 -42 17 C-41.75378906 16.401875 -41.50757813 15.80375 -41.25390625 15.1875 C-37.69804423 8.98412701 -28.5657312 5.23155516 -22 3 C-14.66059338 1.0343888 -7.61059005 -0.4566354 0 0 Z " fill="#0D0D0D" transform="translate(172,167)"/>
<path d="M0 0 C0.66 0 1.32 0 2 0 C1.93904616 2.31319807 1.85002054 4.62566164 1.75 6.9375 C1.70359375 8.22527344 1.6571875 9.51304687 1.609375 10.83984375 C1 15 1 15 -3 24 C-21.81 23.67 -40.62 23.34 -60 23 C-60 22.67 -60 22.34 -60 22 C-50.76 22 -41.52 22 -32 22 C-32.66 21.67 -33.32 21.34 -34 21 C-34 19.68 -34 18.36 -34 17 C-32.64068359 16.96132813 -32.64068359 16.96132813 -31.25390625 16.921875 C-20.06948615 16.40111893 -11.825391 14.31447794 -4 6 C-3.19788193 4.89708766 -2.42386222 3.77285875 -1.6875 2.625 C-1.130625 1.75875 -0.57375 0.8925 0 0 Z " fill="#090909" transform="translate(1588,271)"/>
<path d="M0 0 C0.33 0 0.66 0 1 0 C0.18441118 15.47472465 0.18441118 15.47472465 -2 21 C-4.76850823 22.38425411 -7.00419184 22.11959962 -10.10205078 22.11352539 C-11.38322784 22.11344986 -12.66440491 22.11337433 -13.98440552 22.11329651 C-15.38804157 22.10818948 -16.79167723 22.10297348 -18.1953125 22.09765625 C-19.62734935 22.09579146 -21.05938684 22.09436784 -22.49142456 22.09336853 C-26.26273354 22.08954819 -30.03400407 22.07972202 -33.80529785 22.06866455 C-37.65274536 22.05844005 -41.50019907 22.05386868 -45.34765625 22.04882812 C-52.89845503 22.03809933 -60.44922213 22.02102869 -68 22 C-68 21.67 -68 21.34 -68 21 C-57.44 20.67 -46.88 20.34 -36 20 C-36 18.35 -36 16.7 -36 15 C-30.25 13.875 -30.25 13.875 -28 15 C-20.52284906 15.77966873 -14.43355285 14.98205792 -8 11 C-4.10435004 7.78185438 -2.03517559 4.60592371 0 0 Z " fill="#060606" transform="translate(1396,273)"/>
<path d="M0 0 C0.33 0 0.66 0 1 0 C1.00634791 0.81667806 1.00634791 0.81667806 1.01282406 1.64985466 C1.11604429 14.88609486 1.2247316 28.12228038 1.33933926 41.35842705 C1.39459597 47.7592786 1.44802035 54.16013469 1.49731445 60.56103516 C1.54491747 66.73371595 1.59725877 72.90633977 1.65294075 79.07895279 C1.67338274 81.43854485 1.69209272 83.79815256 1.70907402 86.15777206 C1.73307722 89.45273261 1.76313735 92.74758469 1.79467773 96.04248047 C1.8004332 97.0264682 1.80618866 98.01045593 1.81211853 99.02426147 C1.82190735 99.91891113 1.83169617 100.81356079 1.84178162 101.73532104 C1.84823417 102.51515791 1.85468672 103.29499477 1.8613348 104.09846306 C1.88499617 106.08747395 1.88499617 106.08747395 3 108 C1.515 108.495 1.515 108.495 0 109 C-1.65 110.98 -3.3 112.96 -5 115 C2.26 115 9.52 115 17 115 C17 115.33 17 115.66 17 116 C7.1 116.33 -2.8 116.66 -13 117 C-11.72934824 113.18804471 -10.44433393 112.85047524 -7 110.9375 C-3.34532309 109.10856437 -3.34532309 109.10856437 -1 106 C-0.89653944 104.58122968 -0.85355162 103.15780998 -0.84178162 101.73532104 C-0.8319928 100.84067139 -0.82220398 99.94602173 -0.81211853 99.02426147 C-0.80636307 98.04027374 -0.8006076 97.05628601 -0.79467773 96.04248047 C-0.78477814 95.00830994 -0.77487854 93.9741394 -0.76467896 92.90863037 C-0.73300162 89.47817299 -0.70828189 86.04770173 -0.68359375 82.6171875 C-0.66302961 80.24349602 -0.64203328 77.86980825 -0.62062073 75.49612427 C-0.56534433 69.23914588 -0.51595963 62.98213413 -0.46777344 56.72509766 C-0.41759902 50.34404522 -0.3618918 43.96304139 -0.30664062 37.58203125 C-0.19899096 25.05472928 -0.09737338 12.52738584 0 0 Z " fill="#5B5B5B" transform="translate(836,178)"/>
<path d="M0 0 C-1.375 1.5 -1.375 1.5 -3 3 C-3.66 3 -4.32 3 -5 3 C-4.01 3.99 -3.02 4.98 -2 6 C-2.66 6 -3.32 6 -4 6 C-4 6.66 -4 7.32 -4 8 C-18.52 8 -33.04 8 -48 8 C-48 7.67 -48 7.34 -48 7 C-38.76 7 -29.52 7 -20 7 C-20.66 6.67 -21.32 6.34 -22 6 C-22 4.68 -22 3.36 -22 2 C-21.04738281 1.95101563 -20.09476563 1.90203125 -19.11328125 1.8515625 C-17.85902344 1.77679688 -16.60476563 1.70203125 -15.3125 1.625 C-14.07113281 1.55539062 -12.82976562 1.48578125 -11.55078125 1.4140625 C-7.10203285 0.89528656 -4.27094102 -1.42364701 0 0 Z " fill="#2D2D2D" transform="translate(1576,286)"/>
<path d="M0 0 C-0.33 1.65 -0.66 3.3 -1 5 C7.25 5.33 15.5 5.66 24 6 C24 6.33 24 6.66 24 7 C2.88 7 -18.24 7 -40 7 C-40 6.67 -40 6.34 -40 6 C-29.44 5.67 -18.88 5.34 -8 5 C-8 3.35 -8 1.7 -8 0 C-5.13822943 -1.43088528 -3.06624227 -0.59991697 0 0 Z " fill="#373737" transform="translate(1368,288)"/>
<path d="M0 0 C0 0.66 0 1.32 0 2 C-1.27057182 2.47985967 -2.54146848 2.9588593 -3.8125 3.4375 C-4.87404297 3.83775391 -4.87404297 3.83775391 -5.95703125 4.24609375 C-7.62672396 4.86225186 -9.31157704 5.43719235 -11 6 C-12.20882096 8.00016466 -12.20882096 8.00016466 -13 10 C-13.33 8.35 -13.66 6.7 -14 5 C-13.34 4.67 -12.68 4.34 -12 4 C-12.99090161 2.78568827 -12.99090161 2.78568827 -14.91772461 2.90234375 C-15.73764893 2.91394531 -16.55757324 2.92554688 -17.40234375 2.9375 C-18.73749023 2.94910156 -18.73749023 2.94910156 -20.09960938 2.9609375 C-21.98763095 2.98692541 -23.87565179 3.01296685 -25.76367188 3.0390625 C-26.65505859 3.04679688 -27.54644531 3.05453125 -28.46484375 3.0625 C-29.285896 3.07410156 -30.10694824 3.08570313 -30.95288086 3.09765625 C-33 3 -33 3 -35 2 C-35 2.66 -35 3.32 -35 4 C-37.64 3.34 -40.28 2.68 -43 2 C-43 1.67 -43 1.34 -43 1 C-38.16198967 0.8560845 -33.32393686 0.71372522 -28.48583984 0.57275391 C-26.84292389 0.52467014 -25.20001991 0.47617489 -23.55712891 0.42724609 C-21.18395029 0.35664151 -18.81073127 0.28755922 -16.4375 0.21875 C-15.71320801 0.19687622 -14.98891602 0.17500244 -14.24267578 0.15246582 C-9.49309465 0.01664638 -4.75155127 -0.01870689 0 0 Z " fill="#222222" transform="translate(1552,169)"/>
<path d="M0 0 C-0.99 0.99 -1.98 1.98 -3 3 C-0.16730334 4.41634833 2.47466438 4.3463005 5.625 4.5625 C6.81351563 4.64628906 8.00203125 4.73007813 9.2265625 4.81640625 C10.59941406 4.90728516 10.59941406 4.90728516 12 5 C12 5.33 12 5.66 12 6 C10.97261719 6.04898438 9.94523437 6.09796875 8.88671875 6.1484375 C1.44855813 6.53968295 -5.67983818 7.08817964 -12.9609375 8.79296875 C-13.63382813 8.86128906 -14.30671875 8.92960938 -15 9 C-15.66 8.34 -16.32 7.68 -17 7 C-14.69 5.68 -12.38 4.36 -10 3 C-10.66 2.34 -11.32 1.68 -12 1 C-8.0186217 -0.3271261 -4.14954773 -0.06915913 0 0 Z " fill="#212121" transform="translate(172,167)"/>
<path d="M0 0 C0.66 0 1.32 0 2 0 C1.88630789 2.45933991 1.75957349 4.9167909 1.625 7.375 C1.57859375 8.42300781 1.57859375 8.42300781 1.53125 9.4921875 C1.2265625 14.7734375 1.2265625 14.7734375 -1 17 C-3.125 16.625 -3.125 16.625 -5 16 C-5 15.34 -5 14.68 -5 14 C-5.99 13.67 -6.98 13.34 -8 13 C-7.401875 12.319375 -6.80375 11.63875 -6.1875 10.9375 C-3.7648184 7.68418471 -2.51239743 4.74498411 -1 1 C-0.67 0.67 -0.34 0.34 0 0 Z " fill="#090909" transform="translate(1588,271)"/>
<path d="M0 0 C0.66 0 1.32 0 2 0 C2.45496035 5.76283104 0.79099852 10.60568303 -1 16 C-1.66 16 -2.32 16 -3 16 C-3.268125 14.741875 -3.53625 13.48375 -3.8125 12.1875 C-4.59532537 9.00551199 -5.25335928 6.99755689 -8 5 C-7.34 5 -6.68 5 -6 5 C-6 4.34 -6 3.68 -6 3 C-6.66 2.67 -7.32 2.34 -8 2 C-4.25 0.875 -4.25 0.875 -2 2 C-1.34 1.34 -0.68 0.68 0 0 Z " fill="#181818" transform="translate(1391,174)"/>
<path d="M0 0 C0.804375 0.45375 1.60875 0.9075 2.4375 1.375 C6.56672383 3.2585056 10.56172434 4.16165904 15 5 C15 5.66 15 6.32 15 7 C4.28907291 7.15498126 -6.31485445 6.67842194 -17 6 C-17 5.67 -17 5.34 -17 5 C-15.41058594 4.96132813 -15.41058594 4.96132813 -13.7890625 4.921875 C-12.40099999 4.8656022 -11.01298075 4.80825467 -9.625 4.75 C-8.92632813 4.73582031 -8.22765625 4.72164063 -7.5078125 4.70703125 C-5.22282354 4.63964218 -5.22282354 4.63964218 -2 4 C-0.43516506 2.08611659 -0.43516506 2.08611659 0 0 Z " fill="#262626" transform="translate(697,288)"/>
<path d="M0 0 C0.99 1.32 1.98 2.64 3 4 C0.33333333 6.66666667 -2.33333333 9.33333333 -5 12 C2.26 12 9.52 12 17 12 C17 12.33 17 12.66 17 13 C7.1 13.33 -2.8 13.66 -13 14 C-11.52530898 9.57592694 -8.33673693 8.796037 -4.34765625 6.6953125 C-1.60140897 4.71216555 -0.94931671 3.20055349 0 0 Z " fill="#3D3D3D" transform="translate(836,281)"/>
<path d="M0 0 C0.38027344 0.46148437 0.76054688 0.92296875 1.15234375 1.3984375 C3.51268004 3.44439496 5.53983645 3.89247701 8.5625 4.625 C13.87401575 5.93700787 13.87401575 5.93700787 16 7 C16 7.66 16 8.32 16 9 C13.9163691 8.85848172 11.83310062 8.71162064 9.75 8.5625 C8.58984375 8.48128906 7.4296875 8.40007812 6.234375 8.31640625 C1.03038674 7.80732044 1.03038674 7.80732044 -1 7 C-2 4 -2 4 -1.0625 1.8125 C-0.5365625 0.9153125 -0.5365625 0.9153125 0 0 Z " fill="#161616" transform="translate(1098,286)"/>
<path d="M0 0 C0.66 0.33 1.32 0.66 2 1 C2.56134328 3.27655884 2.89246368 5.55324334 3.2421875 7.87109375 C3.81620708 10.18397585 3.81620708 10.18397585 6.0703125 11.28515625 C6.70710937 11.52105469 7.34390625 11.75695312 8 12 C8 12.99 8 13.98 8 15 C1.25 14.25 1.25 14.25 -1 12 C-1.23046875 9.94140625 -1.23046875 9.94140625 -1.1875 7.5625 C-1.18105469 6.78003906 -1.17460938 5.99757813 -1.16796875 5.19140625 C-1 3 -1 3 0 0 Z " fill="#E5E5E5" transform="translate(612,278)"/>
<path d="M0 0 C-0.598125 0.433125 -1.19625 0.86625 -1.8125 1.3125 C-3.71887737 2.78313397 -5.33894127 4.26672133 -7 6 C-8 7 -9 8 -10 9 C-10.66 8.67 -11.32 8.34 -12 8 C-12.144375 7.360625 -12.28875 6.72125 -12.4375 6.0625 C-12.86165035 3.61789145 -12.86165035 3.61789145 -16 2 C-10.51324804 0.13216954 -5.77807024 -0.2358396 0 0 Z " fill="#131313" transform="translate(164,169)"/>
<path d="M0 0 C1.60488281 0.42925781 1.60488281 0.42925781 3.2421875 0.8671875 C4.31726563 1.13789063 5.39234375 1.40859375 6.5 1.6875 C7.79550781 2.20957031 7.79550781 2.20957031 9.1171875 2.7421875 C9.4471875 3.7321875 9.7771875 4.7221875 10.1171875 5.7421875 C3.90747977 6.07485041 -0.16546145 5.19248081 -5.8828125 2.7421875 C-3.97796021 0.06473777 -3.35654205 -0.30017856 0 0 Z " fill="#0A0A0A" transform="translate(853.8828125,289.2578125)"/>
<path d="M0 0 C4.88049925 3.9419417 9.0580583 8.11950075 13 13 C11.88625 12.979375 10.7725 12.95875 9.625 12.9375 C6.16784079 12.73619282 6.16784079 12.73619282 4 14 C4.103125 12.9275 4.20625 11.855 4.3125 10.75 C4.40072402 6.85789852 4.40072402 6.85789852 1.5 4.5625 C0.675 4.046875 -0.15 3.53125 -1 3 C-0.67 2.01 -0.34 1.02 0 0 Z " fill="#DADADA" transform="translate(900,254)"/>
<path d="M0 0 C0 2.64 0 5.28 0 8 C-4.75 9 -4.75 9 -7 9 C-6.67 7.68 -6.34 6.36 -6 5 C-6.33 5 -6.66 5 -7 5 C-7 3.35 -7 1.7 -7 0 C-4.3333581 -1.33332095 -2.83319697 -0.67102033 0 0 Z " fill="#050505" transform="translate(635,206)"/>
<path d="M0 0 C12.87 0.495 12.87 0.495 26 1 C26 1.33 26 1.66 26 2 C21.38 2.33 16.76 2.66 12 3 C12.33 3.66 12.66 4.32 13 5 C8.71 4.67 4.42 4.34 0 4 C0 2.68 0 1.36 0 0 Z " fill="#5B5B5B" transform="translate(1170,169)"/>
<path d="M0 0 C0.66 0.268125 1.32 0.53625 2 0.8125 C2.33 1.8025 2.66 2.7925 3 3.8125 C2.34 3.8125 1.68 3.8125 1 3.8125 C1 4.4725 1 5.1325 1 5.8125 C-4.94 6.3075 -4.94 6.3075 -11 6.8125 C-11 6.1525 -11 5.4925 -11 4.8125 C-7.62365257 1.9723467 -4.47602466 -0.27975154 0 0 Z " fill="#0E0E0E" transform="translate(1083,288.1875)"/>
<path d="M0 0 C0.33 0.66 0.66 1.32 1 2 C-0.11621939 5.10746504 -1.5902209 8.00955949 -3 11 C-8.94 11.495 -8.94 11.495 -15 12 C-15.33 11.01 -15.66 10.02 -16 9 C-14.35 8.67 -12.7 8.34 -11 8 C-11 8.66 -11 9.32 -11 10 C-9.35 10 -7.7 10 -6 10 C-6 8.35 -6 6.7 -6 5 C-5.34 5 -4.68 5 -4 5 C-4 4.34 -4 3.68 -4 3 C-3.34 3 -2.68 3 -2 3 C-2 2.34 -2 1.68 -2 1 C-1.34 0.67 -0.68 0.34 0 0 Z " fill="#222222" transform="translate(223,282)"/>
<path d="M0 0 C0.66 0 1.32 0 2 0 C1.34 5.94 0.68 11.88 0 18 C-3 17 -3 17 -3.94921875 15.15234375 C-4.19285156 14.42144531 -4.43648437 13.69054687 -4.6875 12.9375 C-4.93886719 12.20402344 -5.19023438 11.47054687 -5.44921875 10.71484375 C-5.63097656 10.14894531 -5.81273437 9.58304688 -6 9 C-4.35 8.67 -2.7 8.34 -1 8 C-0.67 5.36 -0.34 2.72 0 0 Z " fill="#161616" transform="translate(1389,226)"/>
<path d="M0 0 C0.33 0.99 0.66 1.98 1 3 C-1.36337086 7.36314621 -3.6022196 9.74168033 -8 12 C-8.33 12.33 -8.66 12.66 -9 13 C-11.67058851 13.14115161 -14.32432238 13.04247107 -17 13 C-14.80878748 10.80878748 -12.99940878 10.01472659 -10.1875 8.75 C-5.49366871 6.47440885 -2.96621527 4.25157522 0 0 Z " fill="#1D1D1D" transform="translate(599,282)"/>
<path d="M0 0 C0.928125 0.0825 1.85625 0.165 2.8125 0.25 C1.9375 4.125 1.9375 4.125 0.8125 5.25 C2.4625 5.58 4.1125 5.91 5.8125 6.25 C5.8125 6.58 5.8125 6.91 5.8125 7.25 C2.5125 7.25 -0.7875 7.25 -4.1875 7.25 C-4.1875 6.59 -4.1875 5.93 -4.1875 5.25 C-4.8475 4.92 -5.5075 4.59 -6.1875 4.25 C-4.36434338 1.00883268 -3.82500054 0.30000004 0 0 Z " fill="#DFDFDF" transform="translate(1513.1875,287.75)"/>
<path d="M0 0 C0.66 0 1.32 0 2 0 C2.79274611 5.10880829 2.79274611 5.10880829 2 8 C-0.71704199 10.53166875 -3.72025861 12.28204023 -7 14 C-5.6926925 10.56068166 -4.18963666 7.38699095 -2.375 4.1875 C-1.92898437 3.39730469 -1.48296875 2.60710937 -1.0234375 1.79296875 C-0.68570313 1.20128906 -0.34796875 0.60960937 0 0 Z " fill="#191919" transform="translate(223,264)"/>
<path d="M0 0 C3.69806223 0.50428121 7.34514648 1.24753016 11 2 C11 2.66 11 3.32 11 4 C-0.385 3.505 -0.385 3.505 -12 3 C-12 2.67 -12 2.34 -12 2 C-11.21753906 1.93941406 -10.43507813 1.87882812 -9.62890625 1.81640625 C-8.61699219 1.73261719 -7.60507812 1.64882813 -6.5625 1.5625 C-5.55316406 1.48128906 -4.54382813 1.40007812 -3.50390625 1.31640625 C-1.06359221 1.26788532 -1.06359221 1.26788532 0 0 Z " fill="#282828" transform="translate(609,291)"/>
<path d="M0 0 C13.86 0.495 13.86 0.495 28 1 C28 1.33 28 1.66 28 2 C14.635 2.495 14.635 2.495 1 3 C0.67 2.01 0.34 1.02 0 0 Z " fill="#4F4F4F" transform="translate(921,169)"/>
<path d="M0 0 C8.58 0 17.16 0 26 0 C23.3144406 2.6855594 20.62378672 3.06049974 17 4 C16.67 3.34 16.34 2.68 16 2 C13.28553021 1.68758545 10.66090639 1.48663408 7.9375 1.375 C6.79958008 1.31699219 6.79958008 1.31699219 5.63867188 1.2578125 C3.75952805 1.16326438 1.87979664 1.08053244 0 1 C0 0.67 0 0.34 0 0 Z " fill="#1E1E1E" transform="translate(440,171)"/>
<path d="M0 0 C1.73783825 2.60675737 2.50215905 4.01295431 3 7 C2 8 2 8 -0.50390625 8.09765625 C-2.01791016 8.08025391 -2.01791016 8.08025391 -3.5625 8.0625 C-4.57441406 8.05347656 -5.58632813 8.04445313 -6.62890625 8.03515625 C-7.41136719 8.02355469 -8.19382812 8.01195312 -9 8 C-9 7.34 -9 6.68 -9 6 C-8.071875 5.938125 -7.14375 5.87625 -6.1875 5.8125 C-2.8109337 5.31172896 -2.8109337 5.31172896 -1.125 2.4375 C-0.75375 1.633125 -0.3825 0.82875 0 0 Z " fill="#1D1D1D" transform="translate(437,286)"/>
<path d="M0 0 C1.98 1.65 3.96 3.3 6 5 C5 8 5 8 2.9375 9.1875 C2.298125 9.455625 1.65875 9.72375 1 10 C-0.80411967 7.24075815 -1.0127245 6.11027897 -0.625 2.75 C-0.41875 1.8425 -0.2125 0.935 0 0 Z " fill="#DFDFDF" transform="translate(867,218)"/>
<path d="M0 0 C1.32 1.32 2.64 2.64 4 4 C3.01 4 2.02 4 1 4 C0.67 13.24 0.34 22.48 0 32 C-0.33 32 -0.66 32 -1 32 C-1.02469321 27.7641643 -1.04285671 23.52836658 -1.05493164 19.29248047 C-1.05996474 17.8510668 -1.06679173 16.40965824 -1.07543945 14.96826172 C-1.08754983 12.89809915 -1.09323847 10.82800399 -1.09765625 8.7578125 C-1.10289307 7.5114502 -1.10812988 6.26508789 -1.11352539 4.98095703 C-1 2 -1 2 0 0 Z " fill="#BFBFBF" transform="translate(1096,196)"/>
<path d="M0 0 C3.98069267 2.87494471 6.43571997 5.82117329 9 10 C6.03 9.505 6.03 9.505 3 9 C3 8.34 3 7.68 3 7 C2.01 7 1.02 7 0 7 C0 4.69 0 2.38 0 0 Z " fill="#EAEAEA" transform="translate(847,196)"/>
<path d="M0 0 C0.33 0 0.66 0 1 0 C0.88566637 2.25056722 0.75813564 4.50046674 0.625 6.75 C0.55539062 8.00296875 0.48578125 9.2559375 0.4140625 10.546875 C0.04676696 13.60998121 -0.39711286 15.41974266 -2 18 C-1.9071875 16.329375 -1.9071875 16.329375 -1.8125 14.625 C-1.874375 13.42875 -1.93625 12.2325 -2 11 C-2.99 10.34 -3.98 9.68 -5 9 C-3.35 6.03 -1.7 3.06 0 0 Z " fill="#292929" transform="translate(1396,273)"/>
<path d="M0 0 C0.1875 2.375 0.1875 2.375 0 5 C-0.99 5.66 -1.98 6.32 -3 7 C-3.309375 6.0409375 -3.309375 6.0409375 -3.625 5.0625 C-4.89538209 2.65074923 -4.89538209 2.65074923 -8.125 2.25 C-9.07375 2.1675 -10.0225 2.085 -11 2 C-7.36576791 -0.32590854 -4.22911669 -0.16265833 0 0 Z " fill="#1D1D1D" transform="translate(939,171)"/>
<path d="M0 0 C0.53109375 0.27714844 1.0621875 0.55429687 1.609375 0.83984375 C2.31578125 1.20207031 3.0221875 1.56429688 3.75 1.9375 C4.79414063 2.47697266 4.79414063 2.47697266 5.859375 3.02734375 C7.90224433 3.95558182 9.81115376 4.53166578 12 5 C12 5.66 12 6.32 12 7 C4.57142857 7.28571429 4.57142857 7.28571429 1 5 C1 4.34 1 3.68 1 3 C0.34 2.67 -0.32 2.34 -1 2 C-0.67 1.34 -0.34 0.68 0 0 Z " fill="#1E1E1E" transform="translate(458,288)"/>
<path d="M0 0 C3.33557632 2.9905167 5.15083921 5.93184627 7 10 C3.41087588 10 2.89142971 9.33563446 0.3125 7 C-0.31011719 6.443125 -0.93273437 5.88625 -1.57421875 5.3125 C-2.04472656 4.879375 -2.51523437 4.44625 -3 4 C-2.34 3.34 -1.68 2.68 -1 2 C-0.67 1.34 -0.34 0.68 0 0 Z " fill="#212121" transform="translate(931,278)"/>
<path d="M0 0 C4.29 0.33 8.58 0.66 13 1 C12.67 2.65 12.34 4.3 12 6 C11.319375 5.71125 10.63875 5.4225 9.9375 5.125 C6.67106907 3.87402645 3.37153877 2.92552045 0 2 C0 1.34 0 0.68 0 0 Z " fill="#272727" transform="translate(337,170)"/>
<path d="M0 0 C8.91 0 17.82 0 27 0 C27 0.33 27 0.66 27 1 C24.20865148 1.19425873 21.41716313 1.38069517 18.625 1.5625 C17.43390625 1.64661133 17.43390625 1.64661133 16.21875 1.73242188 C10.2265625 2.11328125 10.2265625 2.11328125 8 1 C8 1.66 8 2.32 8 3 C5.36 2.34 2.72 1.68 0 1 C0 0.67 0 0.34 0 0 Z " fill="#303030" transform="translate(1509,170)"/>
<path d="M0 0 C1.12894876 0.93274109 2.25300876 1.87140122 3.375 2.8125 C4.00148438 3.33457031 4.62796875 3.85664063 5.2734375 4.39453125 C7 6 7 6 9 9 C8.21625 8.79375 7.4325 8.5875 6.625 8.375 C5.75875 8.25125 4.8925 8.1275 4 8 C3.34 8.66 2.68 9.32 2 10 C1.690625 9.05125 1.38125 8.1025 1.0625 7.125 C0.12605258 4.13919592 0.12605258 4.13919592 -1 2 C-0.67 1.34 -0.34 0.68 0 0 Z " fill="#E3E3E3" transform="translate(884,237)"/>
<path d="M0 0 C1.98 0 3.96 0 6 0 C6 0.66 6 1.32 6 2 C5.34 2.66 4.68 3.32 4 4 C4.639375 4.268125 5.27875 4.53625 5.9375 4.8125 C8 6 8 6 9 9 C6 9 6 9 4.17578125 7.46875 C3.56089844 6.8190625 2.94601562 6.169375 2.3125 5.5 C1.68988281 4.8503125 1.06726563 4.200625 0.42578125 3.53125 C-0.04472656 3.0259375 -0.51523437 2.520625 -1 2 C-0.67 1.34 -0.34 0.68 0 0 Z " fill="#E5E5E5" transform="translate(858,183)"/>
<path d="M0 0 C4.29 0 8.58 0 13 0 C13 0.33 13 0.66 13 1 C11.35 1.33 9.7 1.66 8 2 C8 2.66 8 3.32 8 4 C8.99 4.33 9.98 4.66 11 5 C6.94393835 4.53199289 3.53411321 4.12046792 0 2 C0 1.34 0 0.68 0 0 Z " fill="#292929" transform="translate(1321,169)"/>
<path d="M0 0 C1.32 0.33 2.64 0.66 4 1 C3.01 4.3 2.02 7.6 1 11 C0.01 10.01 -0.98 9.02 -2 8 C-1.75528519 5.00224356 -1.34661086 2.69322172 0 0 Z " fill="#E1E1E1" transform="translate(629,193)"/>
<path d="M0 0 C0.86625 0.3403125 0.86625 0.3403125 1.75 0.6875 C1.5625 2.5625 1.5625 2.5625 0.75 4.6875 C-1.8125 5.9375 -1.8125 5.9375 -4.25 6.6875 C-4.91 5.3675 -5.57 4.0475 -6.25 2.6875 C-2.80384615 -0.38942308 -2.80384615 -0.38942308 0 0 Z " fill="#F1F1F1" transform="translate(933.25,254.3125)"/>
<path d="M0 0 C2.00720923 0.28674418 4.0085944 0.61866701 6 1 C6 1.99 6 2.98 6 4 C6.66 4.66 7.32 5.32 8 6 C7.67 6.66 7.34 7.32 7 8 C3.2047869 6.50902342 1.38957269 4.24299151 -1 1 C-0.67 0.67 -0.34 0.34 0 0 Z " fill="#F0F0F0" transform="translate(1121,197)"/>
<path d="M0 0 C1 2 1 2 0.4375 4 C-1.57302108 6.79724672 -3.74418077 7.15065585 -7 8 C-5.50902342 4.2047869 -3.24299151 2.38957269 0 0 Z M-9 8 C-8.01 8.33 -7.02 8.66 -6 9 C-6.99 9.495 -6.99 9.495 -8 10 C-8.33 10.66 -8.66 11.32 -9 12 C-9.66 11.34 -10.32 10.68 -11 10 C-10.34 9.34 -9.68 8.68 -9 8 Z " fill="#191919" transform="translate(137,176)"/>
<path d="M0 0 C2 3.75 2 3.75 2 6 C-1.63 6.33 -5.26 6.66 -9 7 C-9 6.34 -9 5.68 -9 5 C-7.88625 4.731875 -6.7725 4.46375 -5.625 4.1875 C-1.78159049 3.34190981 -1.78159049 3.34190981 0 0 Z " fill="#212121" transform="translate(1333,288)"/>
<path d="M0 0 C2.64 1.98 5.28 3.96 8 6 C6.02 6.99 6.02 6.99 4 8 C4 7.34 4 6.68 4 6 C3.01 6 2.02 6 1 6 C0.01 6 -0.98 6 -2 6 C-2 5.34 -2 4.68 -2 4 C-1.34 4 -0.68 4 0 4 C0 2.68 0 1.36 0 0 Z " fill="#EAEAEA" transform="translate(924,278)"/>
<path d="M0 0 C2.64 1.98 5.28 3.96 8 6 C7.67 6.66 7.34 7.32 7 8 C6.38125 7.649375 5.7625 7.29875 5.125 6.9375 C4.073125 6.4734375 4.073125 6.4734375 3 6 C2.01 6.495 2.01 6.495 1 7 C0.34 5.02 -0.32 3.04 -1 1 C-0.67 0.67 -0.34 0.34 0 0 Z " fill="#EBEBEB" transform="translate(125,277)"/>
<path d="M0 0 C2 1 2 1 3 3 C2.67 3.66 2.34 4.32 2 5 C2.66 5 3.32 5 4 5 C4.33 6.32 4.66 7.64 5 9 C3.68 9 2.36 9 1 9 C1 8.34 1 7.68 1 7 C0.01 6.67 -0.98 6.34 -2 6 C-1.34 4.02 -0.68 2.04 0 0 Z " fill="#060606" transform="translate(138,176)"/>
<path d="M0 0 C0.33 0 0.66 0 1 0 C1 3.3 1 6.6 1 10 C-1.31 8.02 -3.62 6.04 -6 4 C-5.67 3.34 -5.34 2.68 -5 2 C-4.34 2 -3.68 2 -3 2 C-2.34 2.66 -1.68 3.32 -1 4 C-0.67 2.68 -0.34 1.36 0 0 Z " fill="#E7E7E7" transform="translate(937,259)"/>
<path d="M0 0 C0 0.99 0 1.98 0 3 C3.17005342 4.58502671 6.49124878 4.60385067 10 5 C10 5.33 10 5.66 10 6 C4.39 6 -1.22 6 -7 6 C-5.35 4.68 -3.7 3.36 -2 2 C-1.34 1.34 -0.68 0.68 0 0 Z " fill="#1E1E1E" transform="translate(1518,288)"/>
<path d="M0 0 C0.66 0.66 1.32 1.32 2 2 C1.34 4.31 0.68 6.62 0 9 C-1.98 7.35 -3.96 5.7 -6 4 C-5.38125 3.71125 -4.7625 3.4225 -4.125 3.125 C-1.86674235 2.06279958 -1.86674235 2.06279958 0 0 Z " fill="#151515" transform="translate(902,246)"/>
<path d="M0 0 C0.33 0.66 0.66 1.32 1 2 C3.01669827 3.13350534 3.01669827 3.13350534 5 4 C4.01 5.98 3.02 7.96 2 10 C-0.05619793 7.68677733 -0.95899829 6.44076838 -1.25 3.3125 C-1 1 -1 1 0 0 Z " fill="#F1F1F1" transform="translate(115,192)"/>
<path d="M0 0 C0.66 0 1.32 0 2 0 C2 0.66 2 1.32 2 2 C6.455 2.99 6.455 2.99 11 4 C11 4.33 11 4.66 11 5 C7.04 5 3.08 5 -1 5 C-1.33 4.34 -1.66 3.68 -2 3 C-1.34 3 -0.68 3 0 3 C0 2.01 0 1.02 0 0 Z " fill="#141414" transform="translate(370,289)"/>
<path d="M0 0 C-0.33 0.66 -0.66 1.32 -1 2 C-3.28515625 2.4140625 -3.28515625 2.4140625 -6.0625 2.625 C-6.98160156 2.69976562 -7.90070313 2.77453125 -8.84765625 2.8515625 C-9.91306641 2.92503906 -9.91306641 2.92503906 -11 3 C-11 1.68 -11 0.36 -11 -1 C-6.74938644 -2.41687119 -4.28148375 -1.19320039 0 0 Z " fill="#EAEAEA" transform="translate(435,290)"/>
<path d="M0 0 C0.66 0 1.32 0 2 0 C1.67 4.95 1.34 9.9 1 15 C0.67 15 0.34 15 0 15 C-0.33 12.03 -0.66 9.06 -1 6 C-1.66 6 -2.32 6 -3 6 C-1.125 1.125 -1.125 1.125 0 0 Z " fill="#363636" transform="translate(1588,271)"/>
<path d="M0 0 C1.1725131 0.95117134 2.33787015 1.91117009 3.5 2.875 C4.47453125 3.67550781 4.47453125 3.67550781 5.46875 4.4921875 C5.9740625 4.98976563 6.479375 5.48734375 7 6 C7 6.66 7 7.32 7 8 C7.66 8.33 8.32 8.66 9 9 C8.01 9.495 8.01 9.495 7 10 C5.82174642 9.09827532 4.65768423 8.17798498 3.5 7.25 C2.8503125 6.73953125 2.200625 6.2290625 1.53125 5.703125 C0 4 0 4 0 0 Z " fill="#1F1F1F" transform="translate(922,253)"/>
<path d="M0 0 C0.66 0.33 1.32 0.66 2 1 C1.95875 1.78375 1.9175 2.5675 1.875 3.375 C1.71271266 6.16116119 1.71271266 6.16116119 4 8 C3.625 10.125 3.625 10.125 3 12 C1.09552434 9.7823723 -0.65102562 7.60120957 -2 5 C-1.3125 2.0625 -1.3125 2.0625 0 0 Z " fill="#E8E8E8" transform="translate(1150,222)"/>
<path d="M0 0 C1.32 0.66 2.64 1.32 4 2 C4 5 4 5 2 8 C0.68 6.02 -0.64 4.04 -2 2 C-1.34 1.34 -0.68 0.68 0 0 Z " fill="#0F0F0F" transform="translate(1111,207)"/>
<path d="M0 0 C1.65 1.65 3.3 3.3 5 5 C4.67 5.66 4.34 6.32 4 7 C2 7 0 7 -2 7 C-2 2 -2 2 0 0 Z " fill="#E1E1E1" transform="translate(1100,200)"/>
<path d="M0 0 C1.98 0.495 1.98 0.495 4 1 C4.33 2.32 4.66 3.64 5 5 C3.68 5 2.36 5 1 5 C0.67 6.98 0.34 8.96 0 11 C-0.33 11 -0.66 11 -1 11 C-1.125 3.375 -1.125 3.375 0 0 Z " fill="#252525" transform="translate(1087,167)"/>
<path d="M0 0 C1.31571603 0.2547514 2.62760376 0.52934141 3.9375 0.8125 C4.66839844 0.96332031 5.39929688 1.11414063 6.15234375 1.26953125 C6.76207031 1.51058594 7.37179687 1.75164062 8 2 C8.33 2.99 8.66 3.98 9 5 C6.36 5 3.72 5 1 5 C1 4.01 1 3.02 1 2 C0.67 1.34 0.34 0.68 0 0 Z " fill="#2E2E2E" transform="translate(855,290)"/>
<path d="M0 0 C5.445 1.485 5.445 1.485 11 3 C10.67 3.99 10.34 4.98 10 6 C5.16743695 5.58578031 3.17320782 3.53586014 0 0 Z " fill="#242424" transform="translate(165,286)"/>
<path d="M0 0 C1.12894876 0.93274109 2.25300876 1.87140122 3.375 2.8125 C4.00148438 3.33457031 4.62796875 3.85664063 5.2734375 4.39453125 C7 6 7 6 9 9 C7.35 8.67 5.7 8.34 4 8 C3.67 6.68 3.34 5.36 3 4 C1.68 3.67 0.36 3.34 -1 3 C-0.67 2.01 -0.34 1.02 0 0 Z " fill="#DBDBDB" transform="translate(1153,258)"/>
<path d="M0 0 C2.93200474 2.85276137 5.64315404 5.65079784 8 9 C6.68 9 5.36 9 4 9 C4 8.34 4 7.68 4 7 C3.01 6.67 2.02 6.34 1 6 C0.67 4.02 0.34 2.04 0 0 Z " fill="#202020" transform="translate(136,263)"/>
<path d="M0 0 C1.2065625 0.0309375 1.2065625 0.0309375 2.4375 0.0625 C0.55800295 3.63354439 -0.73303157 5.60994301 -4.5625 7.0625 C-3.5234375 0.0859375 -3.5234375 0.0859375 0 0 Z " fill="#EBEBEB" transform="translate(1390.5625,278.9375)"/>
<path d="M0 0 C4.99275057 1.27721526 7.57611908 3.17330957 11 7 C10.01 7.33 9.02 7.66 8 8 C5.95703125 6.6015625 5.95703125 6.6015625 3.8125 4.625 C3.09707031 3.97789062 2.38164063 3.33078125 1.64453125 2.6640625 C0 1 0 1 0 0 Z " fill="#1E1E1E" transform="translate(913,267)"/>
<path d="M0 0 C0.66 0.99 1.32 1.98 2 3 C0.88625 2.979375 -0.2275 2.95875 -1.375 2.9375 C-4.83215921 2.73619282 -4.83215921 2.73619282 -7 4 C-7 2.68 -7 1.36 -7 0 C-4.27584084 -1.36207958 -2.87220643 -0.86166193 0 0 Z " fill="#E3E3E3" transform="translate(911,264)"/>
<path d="M0 0 C3.36720387 1.39332574 4.9859524 2.9789286 7 6 C6.34 6.66 5.68 7.32 5 8 C3.62437146 6.71034824 2.29233607 5.37310707 1 4 C1 3.34 1 2.68 1 2 C0.34 1.67 -0.32 1.34 -1 1 C-0.67 0.67 -0.34 0.34 0 0 Z " fill="#EBEBEB" transform="translate(1131,236)"/>
<path d="M0 0 C2.64 0 5.28 0 8 0 C8 0.66 8 1.32 8 2 C8.66 2.66 9.32 3.32 10 4 C2.25 3.125 2.25 3.125 0 2 C0 1.34 0 0.68 0 0 Z " fill="#484848" transform="translate(424,170)"/>
<path d="M0 0 C-0.33 0.99 -0.66 1.98 -1 3 C-0.67 3.66 -0.34 4.32 0 5 C-2.31 4.67 -4.62 4.34 -7 4 C-7.33 3.01 -7.66 2.02 -8 1 C-2.25 -1.125 -2.25 -1.125 0 0 Z " fill="#232323" transform="translate(1387,287)"/>
<path d="M0 0 C2.475 0.495 2.475 0.495 5 1 C5.33 1.99 5.66 2.98 6 4 C5.01 5.485 5.01 5.485 4 7 C3.34 7 2.68 7 2 7 C1.34 4.69 0.68 2.38 0 0 Z " fill="#E9E9E9" transform="translate(682,259)"/>
<path d="M0 0 C1.14926266 0.95421808 2.29430541 1.91352045 3.4375 2.875 C4.07558594 3.40867188 4.71367188 3.94234375 5.37109375 4.4921875 C7 6 7 6 8 8 C7.01 8.33 6.02 8.66 5 9 C4.67 8.01 4.34 7.02 4 6 C3.01 5.67 2.02 5.34 1 5 C0.67 3.35 0.34 1.7 0 0 Z " fill="#1F1F1F" transform="translate(1159,240)"/>
<path d="M0 0 C2.97 0.495 2.97 0.495 6 1 C6 1.66 6 2.32 6 3 C1.38 3 -3.24 3 -8 3 C-8 2.67 -8 2.34 -8 2 C-5.36 1.67 -2.72 1.34 0 1 C0 0.67 0 0.34 0 0 Z " fill="#6A6A6A" transform="translate(706,292)"/>
<path d="M0 0 C-0.33 0.33 -0.66 0.66 -1 1 C0.32 1.66 1.64 2.32 3 3 C-0.63 3 -4.26 3 -8 3 C-8 2.34 -8 1.68 -8 1 C-2.25 -1.125 -2.25 -1.125 0 0 Z " fill="#303030" transform="translate(346,292)"/>
<path d="M0 0 C2 2 2 2 2 5 C-0.64 4.67 -3.28 4.34 -6 4 C-3.94766315 1.7522025 -2.99332739 0.9977758 0 0 Z " fill="#080808" transform="translate(350,290)"/>
<path d="M0 0 C0.33 0.99 0.66 1.98 1 3 C-0.625 6.1875 -0.625 6.1875 -3 9 C-5.75 9.375 -5.75 9.375 -8 9 C-6.8553125 7.88625 -6.8553125 7.88625 -5.6875 6.75 C-3.5606298 4.5736677 -1.7440044 2.47832204 0 0 Z " fill="#383838" transform="translate(599,282)"/>
<path d="M0 0 C1.32 0.33 2.64 0.66 4 1 C3.01 2.98 2.02 4.96 1 7 C0.01 6.34 -0.98 5.68 -2 5 C-1.34 3.35 -0.68 1.7 0 0 Z " fill="#EDEDED" transform="translate(218,266)"/>
<path d="M0 0 C3.86933162 0.57323431 6.15222057 2.38953552 9 5 C9 5.66 9 6.32 9 7 C6.62051228 6.82374165 5.29774151 6.30280227 3.62109375 4.59765625 C2.37884514 3.09350908 1.18623944 1.54870149 0 0 Z " fill="#0E0E0E" transform="translate(907,260)"/>
<path d="M0 0 C1.74627478 2.61941217 2.38722388 4.03824877 3 7 C0.69 6.67 -1.62 6.34 -4 6 C-3.0022242 3.00667261 -2.2477975 2.05233685 0 0 Z " fill="#E2E2E2" transform="translate(661,248)"/>
<path d="M0 0 C1.65 1.65 3.3 3.3 5 5 C4.34 5.66 3.68 6.32 3 7 C0.375 6.625 0.375 6.625 -2 6 C-1.34 4.02 -0.68 2.04 0 0 Z " fill="#161616" transform="translate(917,247)"/>
<path d="M0 0 C1.98 1.65 3.96 3.3 6 5 C3.50935112 5.68707555 1.62113708 6 -1 6 C-0.67 4.02 -0.34 2.04 0 0 Z " fill="#202020" transform="translate(1129,208)"/>
<path d="M0 0 C2.97 0 5.94 0 9 0 C9 0.66 9 1.32 9 2 C6.36 2.66 3.72 3.32 1 4 C0.67 2.68 0.34 1.36 0 0 Z " fill="#0E0E0E" transform="translate(1200,170)"/>
<path d="M0 0 C1.32 0.66 2.64 1.32 4 2 C2.35 3.65 0.7 5.3 -1 7 C-1.66 5.68 -2.32 4.36 -3 3 C-2.01 2.01 -1.02 1.02 0 0 Z " fill="#EAEAEA" transform="translate(824,288)"/>
<path d="M0 0 C-1.07107117 0.86949317 -2.15745944 1.72014205 -3.25 2.5625 C-3.85328125 3.03816406 -4.4565625 3.51382812 -5.078125 4.00390625 C-7 5 -7 5 -9.234375 4.65234375 C-9.81703125 4.43707031 -10.3996875 4.22179687 -11 4 C-11 3.34 -11 2.68 -11 2 C-9.54494642 1.47007308 -8.08581873 0.9513211 -6.625 0.4375 C-5.81289062 0.14746094 -5.00078125 -0.14257812 -4.1640625 -0.44140625 C-2 -1 -2 -1 0 0 Z " fill="#1B1B1B" transform="translate(207,287)"/>
<path d="M0 0 C0.66 0 1.32 0 2 0 C2 0.66 2 1.32 2 2 C3.32 2.33 4.64 2.66 6 3 C6 3.99 6 4.98 6 6 C4.35 5.67 2.7 5.34 1 5 C0.67 3.35 0.34 1.7 0 0 Z " fill="#E8E8E8" transform="translate(460,286)"/>
<path d="M0 0 C0 2 0 4 0 6 C-1.65 6.33 -3.3 6.66 -5 7 C-4.67 5.02 -4.34 3.04 -4 1 C-2.68 0.67 -1.36 0.34 0 0 Z " fill="#141414" transform="translate(1384,222)"/>
<path d="M0 0 C0.99 0 1.98 0 3 0 C3.66 2.31 4.32 4.62 5 7 C4.01 7.33 3.02 7.66 2 8 C1.34 5.36 0.68 2.72 0 0 Z " fill="#101010" transform="translate(650,214)"/>
<path d="M0 0 C0.66 0.33 1.32 0.66 2 1 C-1.625 6.75 -1.625 6.75 -5 9 C-4.5206753 4.68607774 -3.2542015 2.83430453 0 0 Z " fill="#E0E0E0" transform="translate(1544,173)"/>
<path d="M0 0 C1.65 1.65 3.3 3.3 5 5 C4.67 5.66 4.34 6.32 4 7 C3.01 7 2.02 7 1 7 C1 6.34 1 5.68 1 5 C0.34 5 -0.32 5 -1 5 C-0.67 3.35 -0.34 1.7 0 0 Z " fill="#161616" transform="translate(847,174)"/>
<path d="M0 0 C-2.77280706 3.08089673 -5.06326356 4.68775452 -9 6 C-7.54266958 1.38512035 -7.54266958 1.38512035 -5.0625 -0.375 C-3 -1 -3 -1 0 0 Z " fill="#E5E5E5" transform="translate(464,174)"/>
<path d="M0 0 C1.20076172 0.31324219 1.20076172 0.31324219 2.42578125 0.6328125 C3.23402344 0.83648437 4.04226563 1.04015625 4.875 1.25 C5.48988281 1.41757812 6.10476563 1.58515625 6.73828125 1.7578125 C6.73828125 2.0878125 6.73828125 2.4178125 6.73828125 2.7578125 C0.79828125 3.2528125 0.79828125 3.2528125 -5.26171875 3.7578125 C-5.26171875 3.0978125 -5.26171875 2.4378125 -5.26171875 1.7578125 C-2.26171875 -0.2421875 -2.26171875 -0.2421875 0 0 Z " fill="#2C2C2C" transform="translate(1077.26171875,291.2421875)"/>
<path d="M0 0 C2.35953094 2.35953094 2.49141413 3.77895617 3 7 C2.34 7 1.68 7 1 7 C0 6 -1 5 -2 4 C-4.09989652 2.82425289 -4.09989652 2.82425289 -6 2 C-4.02 1.34 -2.04 0.68 0 0 Z " fill="#D8D8D8" transform="translate(863,288)"/>
<path d="M0 0 C2.5 1.3125 2.5 1.3125 5 3 C5 3.99 5 4.98 5 6 C3.35 6 1.7 6 0 6 C-0.38218767 4.34385343 -0.71395102 2.67542976 -1 1 C-0.67 0.67 -0.34 0.34 0 0 Z " fill="#EDEDED" transform="translate(615,287)"/>
<path d="M0 0 C1.32 0.99 2.64 1.98 4 3 C3.34 4.65 2.68 6.3 2 8 C1.01 7.67 0.02 7.34 -1 7 C-1 3 -1 3 0 0 Z " fill="#262626" transform="translate(1180,262)"/>
<path d="M0 0 C2.00720923 0.28674418 4.0085944 0.61866701 6 1 C5.67 2.65 5.34 4.3 5 6 C4.01 6 3.02 6 2 6 C0.3125 3.5 0.3125 3.5 -1 1 C-0.67 0.67 -0.34 0.34 0 0 Z " fill="#E8E8E8" transform="translate(914,241)"/>
<path d="M0 0 C2.4375 0.8125 2.4375 0.8125 5 2 C5.33 2.99 5.66 3.98 6 5 C5.01 5.33 4.02 5.66 3 6 C2.34 6.66 1.68 7.32 1 8 C0.67 5.36 0.34 2.72 0 0 Z " fill="#151515" transform="translate(1151,233)"/>
<path d="M0 0 C1.32 0.33 2.64 0.66 4 1 C4 1.66 4 2.32 4 3 C2.02 3.99 0.04 4.98 -2 6 C-2.66 4.68 -3.32 3.36 -4 2 C-2.68 1.67 -1.36 1.34 0 1 C0 0.67 0 0.34 0 0 Z " fill="#171717" transform="translate(145,178)"/>
<path d="M0 0 C0.66 0.33 1.32 0.66 2 1 C1.34 3.31 0.68 5.62 0 8 C-2.97 7.505 -2.97 7.505 -6 7 C-2.125 5 -2.125 5 -1 5 C-0.67 3.35 -0.34 1.7 0 0 Z " fill="#E8E8E8" transform="translate(1331,284)"/>
<path d="M0 0 C2.5654594 2.5654594 2.54046087 4.47686668 3 8 C2.01 8.33 1.02 8.66 0 9 C-1.15941038 5.52176885 -0.70820884 3.54104422 0 0 Z " fill="#DADADA" transform="translate(674,281)"/>
<path d="M0 0 C0.99 1.32 1.98 2.64 3 4 C1.3125 4.6875 1.3125 4.6875 -1 5 C-3.75 3.5625 -3.75 3.5625 -6 2 C-3.99967627 0.99983813 -2.16874252 0.50603992 0 0 Z " fill="#DCDCDC" transform="translate(164,281)"/>
<path d="M0 0 C0.99 0 1.98 0 3 0 C2.67 2.31 2.34 4.62 2 7 C0.68 5.68 -0.64 4.36 -2 3 C-1.34 2.01 -0.68 1.02 0 0 Z " fill="#E4E4E4" transform="translate(1178,255)"/>
<path d="M0 0 C1.32 0.66 2.64 1.32 4 2 C1.53721199 4.46278801 -0.70676982 4.99771255 -4 6 C-4 2.99472353 -2.05564773 2.05564773 0 0 Z " fill="#D4D4D4" transform="translate(585,289)"/>
<path d="M0 0 C0.66 0.33 1.32 0.66 2 1 C2 1.99 2 2.98 2 4 C-1.33333333 7 -1.33333333 7 -4 7 C-4.33 6.01 -4.66 5.02 -5 4 C-4.360625 3.71125 -3.72125 3.4225 -3.0625 3.125 C-0.84793921 2.17176549 -0.84793921 2.17176549 0 0 Z " fill="#E6E6E6" transform="translate(1578,278)"/>
<path d="M0 0 C0.33 0.66 0.66 1.32 1 2 C1.66 2.33 2.32 2.66 3 3 C1.515 5.475 1.515 5.475 0 8 C-0.99 7.34 -1.98 6.68 -3 6 C-2.01 4.02 -1.02 2.04 0 0 Z " fill="#ECECEC" transform="translate(598,277)"/>
<path d="M0 0 C1.98 1.65 3.96 3.3 6 5 C4.02 5.99 4.02 5.99 2 7 C0.5393715 4.35261084 0 3.10551666 0 0 Z " fill="#212121" transform="translate(874,202)"/>
<path d="M0 0 C2.66666667 1.33333333 5.33333333 2.66666667 8 4 C7.01 4.99 6.02 5.98 5 7 C0 1.125 0 1.125 0 0 Z " fill="#E4E4E4" transform="translate(136,262)"/>
<path d="M0 0 C1.65 1.65 3.3 3.3 5 5 C3.68 5 2.36 5 1 5 C0.34 3.68 -0.32 2.36 -1 1 C-0.67 0.67 -0.34 0.34 0 0 Z " fill="#E4E4E4" transform="translate(1147,252)"/>
<path d="M0 0 C1.98 0.495 1.98 0.495 4 1 C3.67 2.32 3.34 3.64 3 5 C2.01 5 1.02 5 0 5 C-0.33 4.01 -0.66 3.02 -1 2 C-0.67 1.34 -0.34 0.68 0 0 Z " fill="#0D0D0D" transform="translate(1155,238)"/>
<path d="M0 0 C0.99 0.33 1.98 0.66 3 1 C1.57713394 3.84573212 -0.76707908 5.76707908 -3 8 C-3 4.42424104 -1.91159393 2.94704065 0 0 Z " fill="#DCDCDC" transform="translate(135,192)"/>
<path d="M0 0 C0.99 0.99 1.98 1.98 3 3 C2.01 3.99 1.02 4.98 0 6 C-0.99 5.34 -1.98 4.68 -3 4 C-2 2 -2 2 0 0 Z " fill="#0B0B0B" transform="translate(859,187)"/>
<path d="M0 0 C1.98 0.66 3.96 1.32 6 2 C6 2.33 6 2.66 6 3 C3.03 3 0.06 3 -3 3 C-2.01 2.01 -1.02 1.02 0 0 Z " fill="#090909" transform="translate(701,291)"/>
<path d="M0 0 C0.33 1.32 0.66 2.64 1 4 C-0.65 5.32 -2.3 6.64 -4 8 C-4 4.09161134 -2.49432124 2.88405893 0 0 Z " fill="#030303" transform="translate(1585,277)"/>
<path d="M0 0 C1.875 0.25 1.875 0.25 4 1 C5.25 3.0625 5.25 3.0625 6 5 C4.125 4.75 4.125 4.75 2 4 C0.75 1.9375 0.75 1.9375 0 0 Z " fill="#141414" transform="translate(1170,273)"/>
<path d="M0 0 C0.99 0.33 1.98 0.66 3 1 C3.33 2.65 3.66 4.3 4 6 C3.01 6 2.02 6 1 6 C1 5.01 1 4.02 1 3 C0.34 3 -0.32 3 -1 3 C-0.67 2.01 -0.34 1.02 0 0 Z " fill="#161616" transform="translate(683,266)"/>
<path d="M0 0 C1.32 0 2.64 0 4 0 C3.67 1.65 3.34 3.3 3 5 C1.68 5.33 0.36 5.66 -1 6 C-0.67 4.02 -0.34 2.04 0 0 Z " fill="#F6F6F6" transform="translate(657,247)"/>
<path d="M0 0 C0 0.66 0 1.32 0 2 C-2.875 2.625 -2.875 2.625 -6 3 C-6.66 2.34 -7.32 1.68 -8 1 C-5.29120665 -0.35439668 -2.99066732 -0.06501451 0 0 Z " fill="#1B1B1B" transform="translate(960,170)"/>
</svg>
